<?xml version="1.0" encoding="utf-8"?>
<!-- Generator: Adobe Illustrator 15.1.0, SVG Export Plug-In . SVG Version: 6.00 Build 0)  -->
<!DOCTYPE svg PUBLIC "-//W3C//DTD SVG 1.1//EN" "http://www.w3.org/Graphics/SVG/1.1/DTD/svg11.dtd">
<svg version="1.1" id="Layer_1" xmlns="http://www.w3.org/2000/svg" xmlns:xlink="http://www.w3.org/1999/xlink" x="0px" y="0px"
	 width="257px" height="293.053px" viewBox="0 0 257 293.053" enable-background="new 0 0 257 293.053" xml:space="preserve">
<rect x="392" y="-27.141" display="none" width="382" height="358.667"/>
<rect x="398.125" y="-29.808" fill="#54ACAA" width="351.909" height="351.905"/>
<polygon fill="none" points="464.445,82.744 573.5,19.458 682.556,82.744 682.556,209.31 573.5,272.592 464.445,209.31 "/>
<text transform="matrix(0.8649 0.5019 -0.5019 0.8649 493.7773 231.4165)" display="none"><tspan x="0" y="0" display="inline" fill="#FFFFFF" font-family="'Verlag-Book'" font-size="12">B</tspan><tspan x="8.502" y="0" display="inline" fill="#FFFFFF" font-family="'Verlag-Book'" font-size="12" rotate="-0.001">O</tspan><tspan x="20.381" y="-0.001" display="inline" fill="#FFFFFF" font-family="'Verlag-Book'" font-size="12">U</tspan><tspan x="30.512" y="-0.001" display="inline" fill="#FFFFFF" font-family="'Verlag-Book'" font-size="12">L</tspan><tspan x="38.626" y="-0.001" display="inline" fill="#FFFFFF" font-family="'Verlag-Book'" font-size="12" rotate="0">D</tspan><tspan x="49.368" y="-0.001" display="inline" fill="#FFFFFF" font-family="'Verlag-Book'" font-size="12" rotate="0">E</tspan><tspan x="58.074" y="0" display="inline" fill="#FFFFFF" font-family="'Verlag-Book'" font-size="12" rotate="-0.001">R</tspan></text>
<polygon fill="none" points="464.445,82.744 573.5,19.458 682.556,82.744 682.556,209.31 573.5,272.592 464.445,209.31 "/>
<text transform="matrix(0.8649 -0.5019 0.5019 0.8649 596.7832 264.1665)" display="none"><tspan x="0" y="0" display="inline" fill="#FFFFFF" font-family="'Verlag-Book'" font-size="12">C</tspan><tspan x="10.006" y="0" display="inline" fill="#FFFFFF" font-family="'Verlag-Book'" font-size="12" rotate="0">O</tspan><tspan x="21.534" y="-0.001" display="inline" fill="#FFFFFF" font-family="'Verlag-Book'" font-size="12">L</tspan><tspan x="29.292" y="0.001" display="inline" fill="#FFFFFF" font-family="'Verlag-Book'" font-size="12">O</tspan><tspan x="40.829" y="0" display="inline" fill="#FFFFFF" font-family="'Verlag-Book'" font-size="12">R</tspan><tspan x="49.402" y="0" display="inline" fill="#FFFFFF" font-family="'Verlag-Book'" font-size="12" rotate="0">A</tspan><tspan x="59.012" y="0" display="inline" fill="#FFFFFF" font-family="'Verlag-Book'" font-size="12" rotate="-0.001">D</tspan><tspan x="69.392" y="0.001" display="inline" fill="#FFFFFF" font-family="'Verlag-Book'" font-size="12">O</tspan></text>
<rect x="236" y="68.527" fill="none" width="169.5" height="154.5"/>
<text transform="matrix(1 0 0 1 250.9595 214.9751)" display="none" fill="#FFFFFF" font-family="'GothamNarrow-Ultra'" font-size="202">A</text>
<polygon display="none" fill="#FFFFFF" points="475.5,209.027 564.667,58.193 590.667,122.193 611.333,105.527 669.833,209.027 "/>
<g>
	<rect x="406.974" y="-50.893" display="none" fill="#010101" width="330.263" height="373.685"/>
	<g>
		<g>
			<path fill="none" stroke="#FFFFFF" stroke-width="3" stroke-miterlimit="10" d="M482.5,103.22c0-5.5,3.892-12.259,8.649-15.019
				l73.701-42.769c4.757-2.76,12.542-2.76,17.299,0l73.701,42.769c4.757,2.76,8.649,9.519,8.649,15.019v85.612
				c0,5.5-3.893,12.259-8.649,15.019l-73.701,42.769c-4.757,2.76-12.542,2.76-17.299,0l-73.701-42.769
				c-4.757-2.76-8.649-9.519-8.649-15.019V103.22z"/>
		</g>
		<g>
			<path fill="none" stroke="#FFFFFF" stroke-width="3" stroke-miterlimit="10" d="M446.5,82.536c0-5.5,3.888-12.265,8.641-15.034
				L564.859,3.577c4.752-2.769,12.529-2.769,17.281,0l109.719,63.925c4.752,2.769,8.641,9.534,8.641,15.034v127.985
				c0,5.5-3.889,12.266-8.641,15.034l-109.719,63.922c-4.752,2.769-12.529,2.769-17.281,0l-109.719-63.922
				c-4.752-2.769-8.641-9.534-8.641-15.034V82.536z"/>
		</g>
		<g>
			<path fill="none" stroke="#FFFFFF" stroke-miterlimit="1" d="M599.253,34.697l74.726,43.437
				c4.754,2.765,8.521,9.442,8.521,14.942v17.451"/>
		</g>
		<g>
			<path fill="none" stroke="#FFFFFF" stroke-miterlimit="1" d="M464.5,110.527V93.076c0-5.5,3.655-12.242,8.424-14.982
				l75.946-43.397"/>
		</g>
		<g>
			<path fill="none" stroke="#FFFFFF" stroke-linecap="round" stroke-miterlimit="1" d="M599.081,258.008l60.253-35.36
				c4.742-2.786,11.858-6.992,15.894-9.352s7.272-8.786,7.272-14.286v-21.483"/>
		</g>
		<g>
			<path fill="none" stroke="#FFFFFF" stroke-linecap="round" stroke-miterlimit="1" d="M464.5,179.527v19.483
				c0,5.5,3.792,12.285,8.53,15.078l75.846,44.517"/>
		</g>
		<circle fill="#FFFFFF" cx="574.07" cy="269.132" r="3.255"/>
		<circle fill="#FFFFFF" cx="574.07" cy="22.132" r="3.255"/>
		<polygon fill="none" stroke="#FFFFFF" stroke-miterlimit="1" points="600,138.032 601.299,142.027 605.5,142.027 602.102,144.265 
			603.398,148.146 600,145.618 596.602,148.059 597.898,144.279 594.5,142.027 598.701,142.027 		"/>
		<polygon fill="none" stroke="#FFFFFF" stroke-miterlimit="1" points="549,138.032 550.299,142.027 554.5,142.027 551.102,144.265 
			552.398,148.146 549,145.618 545.602,148.059 546.898,144.279 543.5,142.027 547.701,142.027 		"/>
		<g>
			
				<line fill="none" stroke="#FFFFFF" stroke-width="1.25" stroke-miterlimit="1" x1="523.021" y1="200.104" x2="574.604" y2="148.521"/>
			
				<line fill="none" stroke="#FFFFFF" stroke-width="1.25" stroke-miterlimit="1" x1="574.541" y1="147.628" x2="629.709" y2="198.795"/>
			
				<line fill="none" stroke="#FFFFFF" stroke-width="1.25" stroke-miterlimit="1" x1="560.396" y1="162.672" x2="573.729" y2="174.505"/>
			
				<line fill="none" stroke="#FFFFFF" stroke-width="1.25" stroke-miterlimit="1" x1="553.562" y1="169.172" x2="561.562" y2="176.505"/>
		</g>
		<g>
			
				<line fill="none" stroke="#FFFFFF" stroke-width="1.25" stroke-miterlimit="1" x1="495.896" y1="190.755" x2="530.521" y2="156.005"/>
			
				<line fill="none" stroke="#FFFFFF" stroke-width="1.25" stroke-miterlimit="1" x1="529.646" y1="156.005" x2="548.364" y2="173.943"/>
			
				<line fill="none" stroke="#FFFFFF" stroke-width="1.25" stroke-miterlimit="1" x1="520.146" y1="166.005" x2="528.771" y2="173.63"/>
			
				<line fill="none" stroke="#FFFFFF" stroke-width="1.25" stroke-miterlimit="1" x1="515.521" y1="170.63" x2="520.771" y2="175.255"/>
		</g>
		<g>
			
				<line fill="none" stroke="#FFFFFF" stroke-width="1.25" stroke-miterlimit="1" x1="610.553" y1="180.208" x2="634.646" y2="156.005"/>
			
				<line fill="none" stroke="#FFFFFF" stroke-width="1.25" stroke-miterlimit="1" x1="633.771" y1="156.005" x2="652.49" y2="173.943"/>
			
				<line fill="none" stroke="#FFFFFF" stroke-width="1.25" stroke-miterlimit="1" x1="624.271" y1="166.005" x2="632.896" y2="173.63"/>
			
				<line fill="none" stroke="#FFFFFF" stroke-width="1.25" stroke-miterlimit="1" x1="619.646" y1="170.63" x2="624.896" y2="175.255"/>
		</g>
		<g>
			<line fill="none" stroke="#FFFFFF" stroke-miterlimit="1" x1="464.688" y1="166.527" x2="464.688" y2="124.527"/>
			<g>
				<path fill="none" stroke="#FFFFFF" stroke-miterlimit="1" d="M464.688,144.949l9.781,9.922 M464.656,144.996l-9.906,9.906"/>
				<path fill="none" stroke="#FFFFFF" stroke-miterlimit="1" d="M464.703,139.953l8.695,8.801 M464.648,139.988l-8.781,8.781"/>
				<path fill="none" stroke="#FFFFFF" stroke-miterlimit="1" d="M464.719,134.957l7.609,7.68 M464.641,134.98l-7.656,7.656"/>
				<path fill="none" stroke="#FFFFFF" stroke-miterlimit="1" d="M464.734,129.96l6.523,6.559 M464.633,129.972l-6.531,6.531"/>
				<path fill="none" stroke="#FFFFFF" stroke-miterlimit="1" d="M464.75,124.964l5.438,5.438 M464.625,124.964l-5.406,5.406"/>
			</g>
		</g>
		<g>
			<line fill="none" stroke="#FFFFFF" stroke-miterlimit="1" x1="682.688" y1="166.527" x2="682.688" y2="124.527"/>
			<g>
				<path fill="none" stroke="#FFFFFF" stroke-miterlimit="1" d="M682.688,144.949l9.781,9.922 M682.656,144.996l-9.906,9.906"/>
				<path fill="none" stroke="#FFFFFF" stroke-miterlimit="1" d="M682.703,139.953l8.695,8.801 M682.648,139.988l-8.781,8.781"/>
				<path fill="none" stroke="#FFFFFF" stroke-miterlimit="1" d="M682.719,134.957l7.609,7.68 M682.641,134.98l-7.656,7.656"/>
				<path fill="none" stroke="#FFFFFF" stroke-miterlimit="1" d="M682.734,129.96l6.523,6.559 M682.633,129.972l-6.531,6.531"/>
				<path fill="none" stroke="#FFFFFF" stroke-miterlimit="1" d="M682.75,124.964l5.438,5.438 M682.625,124.964l-5.406,5.406"/>
			</g>
		</g>
		<rect x="505" y="82.658" fill="none" width="136.842" height="33.553"/>
		<text transform="matrix(1 0 0 1 511.4209 106.0176)" fill="#FFFFFF" font-family="'Gotham-Black'" font-size="32">ADAMS</text>
		<rect x="525.395" y="70.816" fill="none" width="98.686" height="12.5"/>
		<text transform="matrix(1 0 0 1 555.1719 78.1162)" fill="#FFFFFF" font-family="'Gotham-Medium'" font-size="10">MOUNT</text>
		<rect x="504.658" y="112.921" fill="none" width="138.159" height="16.448"/>
		<text transform="matrix(1 0 0 1 509.3374 127.521)" fill="#FFFFFF" font-family="'Gotham-Book'" font-size="20">CHALLENGE</text>
	</g>
</g>
<rect x="-38.504" y="-50.893" display="none" fill="#010101" width="330.263" height="373.685"/>
<g>
	<path fill="#FFFFFF" d="M128.112,250.19c-3.556,0-6.906-0.808-9.432-2.272l-73.494-42.77C40.036,202.16,36,194.993,36,188.833
		V103.22c0-6.17,4.022-13.337,9.158-16.316l73.581-42.768c2.527-1.466,5.856-2.273,9.374-2.273c3.518,0,6.846,0.807,9.373,2.273
		l73.909,42.768C216.691,89.977,221,97.296,221,103.22v85.612c0,5.915-4.322,13.234-9.636,16.316l-73.821,42.769
		C135.018,249.382,131.668,250.19,128.112,250.19z M128.112,44.862c-2.997,0-5.791,0.664-7.867,1.868L46.665,89.498
		C42.438,91.95,39,98.106,39,103.22v85.612c0,5.105,3.451,11.261,7.693,13.721l73.494,42.77c2.044,1.187,4.933,1.867,7.925,1.867
		c2.992,0,5.881-0.681,7.926-1.868l73.822-42.769c4.412-2.56,8.14-8.843,8.14-13.721V103.22c0-4.887-3.714-11.17-8.111-13.722
		L135.98,46.731C133.903,45.526,131.109,44.862,128.112,44.862z"/>
</g>
<g>
	<path fill="#FFFFFF" d="M128.112,293.053c-3.554,0-6.901-0.81-9.425-2.28L9.175,226.851C4.031,223.854,0,216.68,0,210.521V82.536
		c0-6.169,4.018-13.342,9.146-16.33L118.745,2.281C121.271,0.81,124.597,0,128.112,0c3.516,0,6.842,0.81,9.366,2.281l109.926,63.924
		C252.696,69.288,257,76.614,257,82.536v127.985c0,5.913-4.317,13.238-9.625,16.33l-109.839,63.923
		C135.013,292.244,131.666,293.053,128.112,293.053z M128.112,3c-2.993,0-5.783,0.665-7.856,1.873L10.658,68.797
		C6.435,71.257,3,77.42,3,82.536v127.985c0,5.106,3.448,11.269,7.687,13.738l109.511,63.922c2.042,1.189,4.927,1.872,7.914,1.872
		c2.988,0,5.873-0.683,7.915-1.872l109.839-63.923c4.409-2.568,8.134-8.859,8.134-13.737V82.536c0-4.887-3.711-11.178-8.105-13.738
		L135.969,4.874C133.895,3.665,131.105,3,128.112,3z"/>
</g>
<g>
	<path fill="#FFFFFF" d="M238,110.527h-1V93.076c0-5.31-3.765-11.819-8.392-14.51l-74.845-43.437l0.502-0.865l74.845,43.437
		c4.902,2.85,8.89,9.747,8.89,15.375V110.527z"/>
</g>
<g>
	<path fill="#FFFFFF" d="M19,110.527h-1V93.076c0-5.668,4.009-12.584,8.936-15.416l75.816-43.397l0.497,0.868L27.434,78.528
		C22.784,81.2,19,87.726,19,93.076V110.527z"/>
</g>
<g>
	<path fill="#FFFFFF" d="M153.843,258.508c-0.171,0-0.338-0.088-0.432-0.246c-0.14-0.238-0.061-0.545,0.178-0.685l60.132-35.36
		c2.726-1.602,6.294-3.672,9.604-5.591c2.449-1.42,4.755-2.758,6.472-3.762c3.905-2.283,7.204-8.628,7.204-13.854v-21.483
		c0-0.276,0.224-0.5,0.5-0.5s0.5,0.224,0.5,0.5v21.483c0,5.633-3.454,12.235-7.699,14.718c-1.717,1.004-4.025,2.343-6.475,3.764
		c-3.307,1.918-6.874,3.987-9.598,5.587l-60.132,35.36C154.016,258.486,153.929,258.508,153.843,258.508z"/>
</g>
<g>
	<path fill="#FFFFFF" d="M103.006,259.105c-0.086,0-0.173-0.022-0.253-0.069l-75.715-44.517C22.054,211.582,18,204.625,18,199.01
		v-19.483c0-0.276,0.224-0.5,0.5-0.5s0.5,0.224,0.5,0.5v19.483c0,5.209,3.913,11.917,8.545,14.647l75.715,44.517
		c0.238,0.14,0.317,0.446,0.178,0.684C103.345,259.017,103.178,259.105,103.006,259.105z"/>
</g>
<circle fill="#FFFFFF" cx="128.592" cy="269.132" r="3.255"/>
<circle fill="#FFFFFF" cx="128.592" cy="22.132" r="3.255"/>
<g>
	<path fill="#FFFFFF" d="M157.623,148.547l-3.105-2.311l-3.102,2.229l-0.765-0.568l1.172-3.415l-3.077-2.038l0.276-0.917h3.838
		l1.187-4h0.951l1.187,4h3.838l0.275,0.917l-3.077,2.027l1.175,3.517L157.623,148.547z M154.231,145.211l0.59,0.005l2.121,1.578
		l-0.792-2.371l0.199-0.576l2.005-1.321h-2.533l-0.476-0.345l-0.823-2.533l-0.823,2.533l-0.476,0.345h-2.542l2.015,1.335
		l0.197,0.579l-0.788,2.297L154.231,145.211z"/>
</g>
<g>
	<path fill="#FFFFFF" d="M106.623,148.547l-3.105-2.311l-3.102,2.229l-0.765-0.568l1.172-3.415l-3.077-2.038l0.276-0.917h3.838
		l1.187-4h0.951l1.187,4h3.838l0.275,0.917l-3.077,2.027l1.175,3.517L106.623,148.547z M103.231,145.211l0.59,0.005l2.121,1.578
		l-0.792-2.371l0.199-0.576l2.005-1.321h-2.533l-0.476-0.345l-0.823-2.533l-0.823,2.533l-0.476,0.345h-2.542l2.015,1.335
		l0.197,0.579l-0.788,2.297L103.231,145.211z"/>
</g>
<polygon fill="#FFFFFF" points="184.656,198.337 129.488,147.17 128.639,148.086 128.658,148.105 77.101,199.662 77.985,200.546 
	108.307,170.224 115.663,176.966 116.507,176.044 109.192,169.339 114.974,163.558 127.837,174.973 128.667,174.038 
	115.859,162.671 129.568,148.963 129.362,148.757 183.807,199.253 "/>
<polygon fill="#FFFFFF" points="102.454,174.394 103.319,173.492 84.601,155.554 84.364,155.8 49.975,190.314 50.861,191.197 
	70.299,171.689 74.88,175.724 75.706,174.787 71.183,170.801 74.914,167.057 82.879,174.098 83.707,173.163 75.797,166.17 
	84.626,157.31 "/>
<polygon fill="#FFFFFF" points="206.58,174.394 207.445,173.492 188.727,155.554 188.485,155.806 164.632,179.767 165.518,180.65 
	174.433,171.695 179.006,175.724 179.832,174.787 175.315,170.808 179.045,167.061 187.005,174.098 187.833,173.163 
	179.928,166.174 188.752,157.31 "/>
<polygon fill="#FFFFFF" points="29.347,154.52 19.71,144.744 19.71,141.154 27.565,149.105 28.276,148.402 19.71,139.731 
	19.71,136.14 26.496,142.988 27.206,142.284 19.71,134.719 19.71,131.125 25.426,136.872 26.135,136.167 19.71,129.707 
	19.71,126.109 24.356,130.755 25.063,130.048 19.71,124.695 19.71,124.527 18.71,124.527 18.71,124.695 13.388,130.017 
	14.095,130.724 18.71,126.109 18.71,129.71 12.271,136.15 12.978,136.857 18.71,131.125 18.71,134.726 11.153,142.283 11.86,142.99 
	18.71,136.14 18.71,139.742 10.036,148.416 10.743,149.123 18.71,141.156 18.71,144.757 8.919,154.548 9.626,155.255 18.71,146.171 
	18.71,166.527 19.71,166.527 19.71,146.167 28.635,155.221 "/>
<polygon fill="#FFFFFF" points="247.347,154.52 237.71,144.744 237.71,141.154 245.565,149.105 246.276,148.402 237.71,139.731 
	237.71,136.14 244.496,142.988 245.206,142.284 237.71,134.719 237.71,131.125 243.426,136.872 244.135,136.167 237.71,129.707 
	237.71,126.109 242.356,130.755 243.063,130.048 237.71,124.695 237.71,124.527 236.71,124.527 236.71,124.695 231.388,130.017 
	232.095,130.724 236.71,126.109 236.71,129.71 230.271,136.15 230.978,136.857 236.71,131.125 236.71,134.726 229.153,142.283 
	229.86,142.99 236.71,136.14 236.71,139.742 228.036,148.416 228.743,149.123 236.71,141.156 236.71,144.757 226.919,154.548 
	227.626,155.255 236.71,146.171 236.71,166.527 237.71,166.527 237.71,146.167 246.635,155.221 "/>
<g>
	<path fill="#FFFFFF" d="M76.471,83.459h5.983l9.535,22.559h-6.655l-1.632-4h-8.64l-1.6,4h-6.528L76.471,83.459z M81.91,97.186
		l-2.496-6.367l-2.528,6.367H81.91z"/>
	<path fill="#FFFFFF" d="M94.167,83.619h8.639c8,0,12.639,4.608,12.639,11.071v0.064c0,6.463-4.704,11.263-12.767,11.263h-8.511
		V83.619z M102.902,100.514c3.712,0,6.176-2.048,6.176-5.664v-0.064c0-3.584-2.464-5.664-6.176-5.664h-2.528v11.391H102.902z"/>
	<path fill="#FFFFFF" d="M124.791,83.459h5.983l9.535,22.559h-6.655l-1.632-4h-8.64l-1.6,4h-6.528L124.791,83.459z M130.23,97.186
		l-2.496-6.367l-2.528,6.367H130.23z"/>
	<path fill="#FFFFFF" d="M142.486,83.619h6.56l5.344,8.671l5.344-8.671h6.56v22.398h-6.176V93.154l-5.728,8.768h-0.128l-5.695-8.703
		v12.799h-6.08V83.619z"/>
	<path fill="#FFFFFF" d="M168.566,102.69l3.456-4.128c2.207,1.76,4.671,2.688,7.263,2.688c1.664,0,2.561-0.576,2.561-1.536V99.65
		c0-0.928-0.736-1.44-3.776-2.144c-4.768-1.088-8.447-2.432-8.447-7.04v-0.064c0-4.16,3.296-7.167,8.672-7.167
		c3.808,0,6.783,1.024,9.215,2.976l-3.104,4.384c-2.048-1.44-4.288-2.208-6.271-2.208c-1.504,0-2.24,0.64-2.24,1.44v0.064
		c0,1.024,0.769,1.472,3.872,2.176c5.151,1.12,8.352,2.784,8.352,6.976v0.064c0,4.576-3.616,7.295-9.056,7.295
		C175.094,106.401,171.318,105.154,168.566,102.69z"/>
</g>
<g>
	<path fill="#FFFFFF" d="M110.594,71.12h1.31l2.128,3.308l2.129-3.308h1.31v6.996h-1.229v-5.017l-2.209,3.298h-0.04l-2.189-3.278
		v4.997h-1.209V71.12z"/>
	<path fill="#FFFFFF" d="M118.964,74.638v-0.02c0-1.969,1.519-3.618,3.668-3.618c2.148,0,3.648,1.629,3.648,3.598v0.02
		c0,1.969-1.519,3.618-3.668,3.618S118.964,76.607,118.964,74.638z M124.991,74.638v-0.02c0-1.359-0.989-2.489-2.378-2.489
		s-2.359,1.109-2.359,2.469v0.02c0,1.359,0.99,2.489,2.379,2.489S124.991,75.998,124.991,74.638z"/>
	<path fill="#FFFFFF" d="M127.664,75.148V71.12h1.229v3.978c0,1.299,0.669,1.999,1.769,1.999c1.089,0,1.759-0.66,1.759-1.949V71.12
		h1.229v3.968c0,2.089-1.18,3.138-3.008,3.138C128.823,78.226,127.664,77.177,127.664,75.148z"/>
	<path fill="#FFFFFF" d="M135.344,71.12h1.14l3.748,4.837V71.12h1.209v6.996h-1.029l-3.858-4.977v4.977h-1.209V71.12z"/>
	<path fill="#FFFFFF" d="M144.963,72.259h-2.219V71.12h5.677v1.139h-2.219v5.857h-1.239V72.259z"/>
</g>
<g>
	<path fill="#FFFFFF" d="M65.22,120.56v-0.04c0-3.961,2.96-7.242,7.082-7.242c2.541,0,4.061,0.9,5.461,2.221l-1.08,1.16
		c-1.18-1.12-2.5-1.92-4.401-1.92c-3.101,0-5.421,2.521-5.421,5.741v0.04c0,3.241,2.341,5.781,5.421,5.781
		c1.92,0,3.181-0.74,4.521-2.021l1.04,1.02c-1.46,1.48-3.061,2.461-5.601,2.461C68.201,127.761,65.22,124.581,65.22,120.56z"/>
	<path fill="#FFFFFF" d="M80.6,113.518h1.58v6.221h8.082v-6.221h1.58v14.003h-1.58v-6.301H82.18v6.301H80.6V113.518z"/>
	<path fill="#FFFFFF" d="M100.981,113.418h1.48l6.381,14.103h-1.701l-1.64-3.701H97.88l-1.661,3.701H94.6L100.981,113.418z
		 M104.882,122.4l-3.181-7.142L98.5,122.4H104.882z"/>
	<path fill="#FFFFFF" d="M111.6,113.518h1.58v12.542h7.882v1.46H111.6V113.518z"/>
	<path fill="#FFFFFF" d="M123.979,113.518h1.58v12.542h7.882v1.46h-9.462V113.518z"/>
	<path fill="#FFFFFF" d="M136.359,113.518h10.122v1.44h-8.542v4.781h7.642v1.44h-7.642v4.901h8.642v1.44h-10.222V113.518z"/>
	<path fill="#FFFFFF" d="M149.759,113.518h1.48l8.822,11.222v-11.222h1.54v14.003h-1.26l-9.042-11.482v11.482h-1.54V113.518z"/>
	<path fill="#FFFFFF" d="M164.939,120.56v-0.04c0-3.841,2.82-7.242,7.021-7.242c2.36,0,3.821,0.68,5.221,1.86l-1.021,1.2
		c-1.08-0.94-2.28-1.6-4.261-1.6c-3.101,0-5.321,2.621-5.321,5.741v0.04c0,3.341,2.141,5.821,5.542,5.821
		c1.6,0,3.081-0.62,4.041-1.4v-3.481H171.9v-1.42h5.781v5.581c-1.3,1.16-3.261,2.141-5.621,2.141
		C167.66,127.761,164.939,124.561,164.939,120.56z"/>
	<path fill="#FFFFFF" d="M181.239,113.518h10.122v1.44h-8.542v4.781h7.642v1.44h-7.642v4.901h8.642v1.44h-10.222V113.518z"/>
</g>
<rect x="843.974" y="-65.893" fill="#010101" width="330.263" height="373.685"/>
<g>
	<g>
		<path fill="none" stroke="#FFFFFF" stroke-width="3" stroke-miterlimit="10" d="M919.5,88.22c0-5.5,3.893-12.259,8.649-15.019
			l73.701-42.769c4.757-2.76,12.542-2.76,17.299,0l73.701,42.769c4.757,2.76,8.649,9.519,8.649,15.019v85.612
			c0,5.5-3.893,12.259-8.649,15.019l-73.701,42.769c-4.757,2.76-12.542,2.76-17.299,0l-73.701-42.769
			c-4.757-2.76-8.649-9.519-8.649-15.019V88.22z"/>
	</g>
	<g>
		<path fill="none" stroke="#FFFFFF" stroke-width="3" stroke-miterlimit="10" d="M883.5,67.536c0-5.5,3.889-12.265,8.641-15.034
			l109.719-63.925c4.752-2.769,12.529-2.769,17.281,0l109.719,63.925c4.752,2.769,8.641,9.534,8.641,15.034v127.985
			c0,5.5-3.889,12.266-8.641,15.034l-109.719,63.922c-4.752,2.769-12.529,2.769-17.281,0l-109.719-63.922
			c-4.752-2.769-8.641-9.534-8.641-15.034V67.536z"/>
	</g>
	<g>
		<path fill="none" stroke="#FFFFFF" stroke-miterlimit="1" d="M1036.254,19.697l74.725,43.437
			c4.755,2.765,8.521,9.442,8.521,14.942v17.451"/>
	</g>
	<g>
		<path fill="none" stroke="#FFFFFF" stroke-miterlimit="1" d="M901.5,95.527V78.076c0-5.5,3.654-12.242,8.424-14.982l75.946-43.397
			"/>
	</g>
	<g>
		<path fill="none" stroke="#FFFFFF" stroke-linecap="round" stroke-miterlimit="1" d="M1036.082,243.008l60.251-35.36
			c4.742-2.786,11.859-6.992,15.895-9.352s7.272-8.786,7.272-14.286v-21.483"/>
	</g>
	<g>
		<path fill="none" stroke="#FFFFFF" stroke-linecap="round" stroke-miterlimit="1" d="M901.5,164.527v19.483
			c0,5.5,3.793,12.285,8.53,15.078l75.846,44.517"/>
	</g>
	<circle fill="#FFFFFF" cx="1011.07" cy="254.132" r="3.255"/>
	<circle fill="#FFFFFF" cx="1011.07" cy="7.132" r="3.255"/>
	<polygon fill="none" stroke="#FFFFFF" stroke-miterlimit="1" points="1037,123.032 1038.299,127.027 1042.5,127.027 
		1039.102,129.265 1040.398,133.146 1037,130.618 1033.602,133.059 1034.898,129.279 1031.5,127.027 1035.701,127.027 	"/>
	<polygon fill="none" stroke="#FFFFFF" stroke-miterlimit="1" points="986,123.032 987.299,127.027 991.5,127.027 988.102,129.265 
		989.398,133.146 986,130.618 982.602,133.059 983.898,129.279 980.5,127.027 984.701,127.027 	"/>
	<g>
		
			<line fill="none" stroke="#FFFFFF" stroke-width="1.25" stroke-miterlimit="1" x1="960.021" y1="185.104" x2="1011.604" y2="133.521"/>
		
			<line fill="none" stroke="#FFFFFF" stroke-width="1.25" stroke-miterlimit="1" x1="1011.541" y1="132.628" x2="1066.708" y2="183.795"/>
		
			<line fill="none" stroke="#FFFFFF" stroke-width="1.25" stroke-miterlimit="1" x1="997.396" y1="147.672" x2="1010.729" y2="159.505"/>
		
			<line fill="none" stroke="#FFFFFF" stroke-width="1.25" stroke-miterlimit="1" x1="990.562" y1="154.172" x2="998.562" y2="161.505"/>
	</g>
	<g>
		
			<line fill="none" stroke="#FFFFFF" stroke-width="1.25" stroke-miterlimit="1" x1="932.896" y1="175.755" x2="967.521" y2="141.005"/>
		
			<line fill="none" stroke="#FFFFFF" stroke-width="1.25" stroke-miterlimit="1" x1="966.646" y1="141.005" x2="985.364" y2="158.943"/>
		
			<line fill="none" stroke="#FFFFFF" stroke-width="1.25" stroke-miterlimit="1" x1="957.146" y1="151.005" x2="965.771" y2="158.63"/>
		
			<line fill="none" stroke="#FFFFFF" stroke-width="1.25" stroke-miterlimit="1" x1="952.521" y1="155.63" x2="957.771" y2="160.255"/>
	</g>
	<g>
		
			<line fill="none" stroke="#FFFFFF" stroke-width="1.25" stroke-miterlimit="1" x1="1047.552" y1="165.208" x2="1071.646" y2="141.005"/>
		
			<line fill="none" stroke="#FFFFFF" stroke-width="1.25" stroke-miterlimit="1" x1="1070.771" y1="141.005" x2="1089.489" y2="158.943"/>
		
			<line fill="none" stroke="#FFFFFF" stroke-width="1.25" stroke-miterlimit="1" x1="1061.271" y1="151.005" x2="1069.896" y2="158.63"/>
		
			<line fill="none" stroke="#FFFFFF" stroke-width="1.25" stroke-miterlimit="1" x1="1056.646" y1="155.63" x2="1061.896" y2="160.255"/>
	</g>
	<g>
		<line fill="none" stroke="#FFFFFF" stroke-miterlimit="1" x1="901.688" y1="151.527" x2="901.688" y2="109.527"/>
		<g>
			<path fill="none" stroke="#FFFFFF" stroke-miterlimit="1" d="M901.688,129.949l9.781,9.922 M901.656,129.996l-9.906,9.906"/>
			<path fill="none" stroke="#FFFFFF" stroke-miterlimit="1" d="M901.703,124.953l8.695,8.801 M901.648,124.988l-8.781,8.781"/>
			<path fill="none" stroke="#FFFFFF" stroke-miterlimit="1" d="M901.719,119.957l7.609,7.68 M901.641,119.98l-7.656,7.656"/>
			<path fill="none" stroke="#FFFFFF" stroke-miterlimit="1" d="M901.734,114.96l6.523,6.559 M901.633,114.972l-6.531,6.531"/>
			<path fill="none" stroke="#FFFFFF" stroke-miterlimit="1" d="M901.75,109.964l5.438,5.438 M901.625,109.964l-5.406,5.406"/>
		</g>
	</g>
	<g>
		<line fill="none" stroke="#FFFFFF" stroke-miterlimit="1" x1="1119.688" y1="151.527" x2="1119.688" y2="109.527"/>
		<g>
			<path fill="none" stroke="#FFFFFF" stroke-miterlimit="1" d="M1119.688,129.949l9.781,9.922 M1119.656,129.996l-9.906,9.906"/>
			<path fill="none" stroke="#FFFFFF" stroke-miterlimit="1" d="M1119.703,124.953l8.695,8.801 M1119.648,124.988l-8.781,8.781"/>
			<path fill="none" stroke="#FFFFFF" stroke-miterlimit="1" d="M1119.719,119.957l7.609,7.68 M1119.641,119.98l-7.656,7.656"/>
			<path fill="none" stroke="#FFFFFF" stroke-miterlimit="1" d="M1119.734,114.96l6.523,6.559 M1119.633,114.972l-6.531,6.531"/>
			<path fill="none" stroke="#FFFFFF" stroke-miterlimit="1" d="M1119.75,109.964l5.438,5.438 M1119.625,109.964l-5.406,5.406"/>
		</g>
	</g>
	<rect x="942" y="67.658" fill="none" width="136.842" height="33.553"/>
	<text transform="matrix(1 0 0 1 948.4209 91.0176)" fill="#FFFFFF" font-family="'Gotham-Black'" font-size="32">ADAMS</text>
	<rect x="962.395" y="55.816" fill="none" width="98.685" height="12.5"/>
	<text transform="matrix(1 0 0 1 992.1719 63.1162)" fill="#FFFFFF" font-family="'Gotham-Medium'" font-size="10">MOUNT</text>
	<rect x="941.658" y="97.921" fill="none" width="138.158" height="16.448"/>
	<text transform="matrix(1 0 0 1 946.3379 112.521)" fill="#FFFFFF" font-family="'Gotham-Book'" font-size="20">CHALLENGE</text>
</g>
</svg>
