<?xml version="1.0" encoding="utf-8"?>
<!-- Generator: Adobe Illustrator 15.1.0, SVG Export Plug-In . SVG Version: 6.00 Build 0)  -->
<!DOCTYPE svg PUBLIC "-//W3C//DTD SVG 1.1//EN" "http://www.w3.org/Graphics/SVG/1.1/DTD/svg11.dtd">
<svg version="1.1" id="Layer_1" xmlns="http://www.w3.org/2000/svg" xmlns:xlink="http://www.w3.org/1999/xlink" x="0px" y="0px"
	 width="332px" height="332px" viewBox="0 0 332 332" enable-background="new 0 0 332 332" xml:space="preserve">
<rect x="429.398" y="-7.333" display="none" width="382" height="358.667"/>
<rect x="435.524" y="-10" fill="#54ACAA" width="351.909" height="351.905"/>
<polygon fill="none" points="501.844,102.551 610.898,39.266 719.954,102.551 719.954,229.118 610.898,292.4 501.844,229.118 "/>
<text transform="matrix(0.8649 0.5019 -0.5019 0.8649 531.1758 251.2241)" display="none"><tspan x="0" y="0" display="inline" fill="#FFFFFF" font-family="'Verlag-Book'" font-size="12">B</tspan><tspan x="8.502" y="0" display="inline" fill="#FFFFFF" font-family="'Verlag-Book'" font-size="12" rotate="-0.001">O</tspan><tspan x="20.381" y="-0.001" display="inline" fill="#FFFFFF" font-family="'Verlag-Book'" font-size="12">U</tspan><tspan x="30.512" y="-0.001" display="inline" fill="#FFFFFF" font-family="'Verlag-Book'" font-size="12">L</tspan><tspan x="38.626" y="-0.001" display="inline" fill="#FFFFFF" font-family="'Verlag-Book'" font-size="12" rotate="0">D</tspan><tspan x="49.368" y="-0.001" display="inline" fill="#FFFFFF" font-family="'Verlag-Book'" font-size="12" rotate="0">E</tspan><tspan x="58.074" y="0" display="inline" fill="#FFFFFF" font-family="'Verlag-Book'" font-size="12" rotate="-0.001">R</tspan></text>
<polygon fill="none" points="501.844,102.551 610.898,39.266 719.954,102.551 719.954,229.118 610.898,292.4 501.844,229.118 "/>
<text transform="matrix(0.8649 -0.5019 0.5019 0.8649 634.1816 283.9741)" display="none"><tspan x="0" y="0" display="inline" fill="#FFFFFF" font-family="'Verlag-Book'" font-size="12">C</tspan><tspan x="10.006" y="0" display="inline" fill="#FFFFFF" font-family="'Verlag-Book'" font-size="12" rotate="0">O</tspan><tspan x="21.534" y="-0.001" display="inline" fill="#FFFFFF" font-family="'Verlag-Book'" font-size="12">L</tspan><tspan x="29.292" y="0" display="inline" fill="#FFFFFF" font-family="'Verlag-Book'" font-size="12">O</tspan><tspan x="40.829" y="0" display="inline" fill="#FFFFFF" font-family="'Verlag-Book'" font-size="12">R</tspan><tspan x="49.402" y="0" display="inline" fill="#FFFFFF" font-family="'Verlag-Book'" font-size="12" rotate="0">A</tspan><tspan x="59.012" y="0" display="inline" fill="#FFFFFF" font-family="'Verlag-Book'" font-size="12" rotate="-0.001">D</tspan><tspan x="69.392" y="0" display="inline" fill="#FFFFFF" font-family="'Verlag-Book'" font-size="12">O</tspan></text>
<rect x="273.398" y="88.334" fill="none" width="169.5" height="154.5"/>
<text transform="matrix(1 0 0 1 288.3579 234.7827)" display="none" fill="#FFFFFF" font-family="'GothamNarrow-Ultra'" font-size="202">A</text>
<polygon display="none" fill="#FFFFFF" points="512.898,228.834 602.065,78.001 628.065,142.001 648.731,125.334 707.231,228.834 
	"/>
<g>
	<rect x="444.372" y="-31.085" display="none" fill="#010101" width="330.263" height="373.685"/>
	<g>
		<g>
			<path fill="none" stroke="#FFFFFF" stroke-width="3" stroke-miterlimit="10" d="M519.898,123.028
				c0-5.5,3.892-12.259,8.649-15.019l73.701-42.769c4.757-2.76,12.542-2.76,17.299,0l73.701,42.769
				c4.757,2.76,8.649,9.519,8.649,15.019v85.612c0,5.5-3.893,12.259-8.649,15.019l-73.701,42.769c-4.757,2.76-12.542,2.76-17.299,0
				l-73.701-42.769c-4.757-2.76-8.649-9.519-8.649-15.019V123.028z"/>
		</g>
		<g>
			<path fill="none" stroke="#FFFFFF" stroke-width="3" stroke-miterlimit="10" d="M483.898,102.343
				c0-5.5,3.888-12.265,8.641-15.034l109.719-63.925c4.752-2.769,12.529-2.769,17.281,0l109.719,63.925
				c4.752,2.769,8.641,9.534,8.641,15.034v127.985c0,5.5-3.889,12.266-8.641,15.034l-109.719,63.922
				c-4.752,2.769-12.529,2.769-17.281,0l-109.719-63.922c-4.752-2.769-8.641-9.534-8.641-15.034V102.343z"/>
		</g>
		<g>
			<path fill="none" stroke="#FFFFFF" stroke-miterlimit="1" d="M636.651,54.504l74.726,43.437
				c4.754,2.765,8.521,9.442,8.521,14.942v17.451"/>
		</g>
		<g>
			<path fill="none" stroke="#FFFFFF" stroke-miterlimit="1" d="M501.898,130.334v-17.451c0-5.5,3.655-12.242,8.424-14.982
				l75.946-43.397"/>
		</g>
		<g>
			<path fill="none" stroke="#FFFFFF" stroke-linecap="round" stroke-miterlimit="1" d="M636.479,277.816l60.253-35.36
				c4.742-2.786,11.858-6.992,15.894-9.352s7.272-8.786,7.272-14.286v-21.483"/>
		</g>
		<g>
			<path fill="none" stroke="#FFFFFF" stroke-linecap="round" stroke-miterlimit="1" d="M501.898,199.334v19.483
				c0,5.5,3.792,12.285,8.53,15.078l75.846,44.517"/>
		</g>
		<circle fill="#FFFFFF" cx="611.468" cy="288.94" r="3.255"/>
		<circle fill="#FFFFFF" cx="611.468" cy="41.94" r="3.255"/>
		<polygon fill="none" stroke="#FFFFFF" stroke-miterlimit="1" points="637.398,157.839 638.697,161.834 642.898,161.834 
			639.5,164.073 640.797,167.954 637.398,165.425 634,167.867 635.297,164.086 631.898,161.834 636.1,161.834 		"/>
		<polygon fill="none" stroke="#FFFFFF" stroke-miterlimit="1" points="586.398,157.839 587.697,161.834 591.898,161.834 
			588.5,164.073 589.797,167.954 586.398,165.425 583,167.867 584.297,164.086 580.898,161.834 585.1,161.834 		"/>
		<g>
			
				<line fill="none" stroke="#FFFFFF" stroke-width="1.25" stroke-miterlimit="1" x1="560.419" y1="219.912" x2="612.002" y2="168.329"/>
			
				<line fill="none" stroke="#FFFFFF" stroke-width="1.25" stroke-miterlimit="1" x1="611.939" y1="167.436" x2="667.107" y2="218.603"/>
			
				<line fill="none" stroke="#FFFFFF" stroke-width="1.25" stroke-miterlimit="1" x1="597.794" y1="182.48" x2="611.128" y2="194.313"/>
			
				<line fill="none" stroke="#FFFFFF" stroke-width="1.25" stroke-miterlimit="1" x1="590.961" y1="188.98" x2="598.961" y2="196.313"/>
		</g>
		<g>
			
				<line fill="none" stroke="#FFFFFF" stroke-width="1.25" stroke-miterlimit="1" x1="533.294" y1="210.563" x2="567.919" y2="175.813"/>
			
				<line fill="none" stroke="#FFFFFF" stroke-width="1.25" stroke-miterlimit="1" x1="567.044" y1="175.813" x2="585.763" y2="193.75"/>
			
				<line fill="none" stroke="#FFFFFF" stroke-width="1.25" stroke-miterlimit="1" x1="557.544" y1="185.813" x2="566.169" y2="193.438"/>
			
				<line fill="none" stroke="#FFFFFF" stroke-width="1.25" stroke-miterlimit="1" x1="552.919" y1="190.438" x2="558.169" y2="195.063"/>
		</g>
		<g>
			
				<line fill="none" stroke="#FFFFFF" stroke-width="1.25" stroke-miterlimit="1" x1="647.951" y1="200.016" x2="672.045" y2="175.813"/>
			
				<line fill="none" stroke="#FFFFFF" stroke-width="1.25" stroke-miterlimit="1" x1="671.17" y1="175.813" x2="689.889" y2="193.75"/>
			
				<line fill="none" stroke="#FFFFFF" stroke-width="1.25" stroke-miterlimit="1" x1="661.67" y1="185.813" x2="670.295" y2="193.438"/>
			
				<line fill="none" stroke="#FFFFFF" stroke-width="1.25" stroke-miterlimit="1" x1="657.045" y1="190.438" x2="662.295" y2="195.063"/>
		</g>
		<g>
			<line fill="none" stroke="#FFFFFF" stroke-miterlimit="1" x1="502.086" y1="186.334" x2="502.086" y2="144.334"/>
			<g>
				<path fill="none" stroke="#FFFFFF" stroke-miterlimit="1" d="M502.086,164.756l9.781,9.922 M502.055,164.803l-9.906,9.906"/>
				<path fill="none" stroke="#FFFFFF" stroke-miterlimit="1" d="M502.102,159.76l8.695,8.801 M502.047,159.795l-8.781,8.781"/>
				<path fill="none" stroke="#FFFFFF" stroke-miterlimit="1" d="M502.117,154.764l7.609,7.68 M502.039,154.788l-7.656,7.656"/>
				<path fill="none" stroke="#FFFFFF" stroke-miterlimit="1" d="M502.133,149.768l6.523,6.559 M502.031,149.78l-6.531,6.531"/>
				<path fill="none" stroke="#FFFFFF" stroke-miterlimit="1" d="M502.148,144.772l5.438,5.438 M502.023,144.772l-5.406,5.406"/>
			</g>
		</g>
		<g>
			<line fill="none" stroke="#FFFFFF" stroke-miterlimit="1" x1="720.086" y1="186.334" x2="720.086" y2="144.334"/>
			<g>
				<path fill="none" stroke="#FFFFFF" stroke-miterlimit="1" d="M720.086,164.756l9.781,9.922 M720.055,164.803l-9.906,9.906"/>
				<path fill="none" stroke="#FFFFFF" stroke-miterlimit="1" d="M720.102,159.76l8.695,8.801 M720.047,159.795l-8.781,8.781"/>
				<path fill="none" stroke="#FFFFFF" stroke-miterlimit="1" d="M720.117,154.764l7.609,7.68 M720.039,154.788l-7.656,7.656"/>
				<path fill="none" stroke="#FFFFFF" stroke-miterlimit="1" d="M720.133,149.768l6.523,6.559 M720.031,149.78l-6.531,6.531"/>
				<path fill="none" stroke="#FFFFFF" stroke-miterlimit="1" d="M720.148,144.772l5.438,5.438 M720.023,144.772l-5.406,5.406"/>
			</g>
		</g>
		<rect x="542.398" y="102.465" fill="none" width="136.842" height="33.553"/>
		<text transform="matrix(1 0 0 1 548.8193 125.8252)" fill="#FFFFFF" font-family="'Gotham-Black'" font-size="32">ADAMS</text>
		<rect x="562.793" y="90.624" fill="none" width="98.686" height="12.5"/>
		<text transform="matrix(1 0 0 1 592.5703 97.9238)" fill="#FFFFFF" font-family="'Gotham-Medium'" font-size="10">MOUNT</text>
		<rect x="542.056" y="132.729" fill="none" width="138.159" height="16.448"/>
		<text transform="matrix(1 0 0 1 546.7358 147.3286)" fill="#FFFFFF" font-family="'Gotham-Book'" font-size="20">CHALLENGE</text>
	</g>
</g>
<g>
	<rect x="-1.105" y="-31.085" display="none" fill="#010101" width="330.263" height="373.685"/>
	<g>
		<g>
			<path fill="none" stroke="#FFFFFF" stroke-width="3" stroke-miterlimit="10" d="M74.898,123.028c0-5.5,3.653-12.259,8.411-15.019
				l73.582-42.769c4.758-2.76,12.482-2.76,17.239,0l73.91,42.769c4.757,2.76,8.858,9.519,8.858,15.019v85.612
				c0,5.5-4.131,12.259-8.888,15.019l-73.821,42.769c-4.757,2.76-12.601,2.76-17.358,0l-73.492-42.769
				c-4.757-2.76-8.44-9.519-8.44-15.019V123.028z"/>
		</g>
		<g>
			<path fill="none" stroke="#FFFFFF" stroke-width="3" stroke-miterlimit="10" d="M38.898,102.343c0-5.5,3.649-12.265,8.402-15.034
				l109.599-63.925c4.753-2.769,12.469-2.769,17.222,0l109.928,63.925c4.752,2.769,8.85,9.534,8.85,15.034v127.985
				c0,5.5-4.127,12.266-8.879,15.034l-109.838,63.922c-4.752,2.769-12.588,2.769-17.341,0L47.33,245.363
				c-4.752-2.769-8.432-9.534-8.432-15.034V102.343z"/>
		</g>
		<g>
			<path fill="none" stroke="#FFFFFF" stroke-miterlimit="1" d="M191.413,54.504l74.845,43.437
				c4.755,2.765,8.641,9.442,8.641,14.942v17.451"/>
		</g>
		<g>
			<path fill="none" stroke="#FFFFFF" stroke-miterlimit="1" d="M55.898,130.334v-17.451c0-5.5,3.917-12.242,8.685-14.982
				l75.815-43.397"/>
		</g>
		<g>
			<path fill="none" stroke="#FFFFFF" stroke-linecap="round" stroke-miterlimit="1" d="M191.241,277.816l60.132-35.36
				c4.743-2.786,12.04-6.992,16.074-9.352s7.451-8.786,7.451-14.286v-21.483"/>
		</g>
		<g>
			<path fill="none" stroke="#FFFFFF" stroke-linecap="round" stroke-miterlimit="1" d="M55.898,199.334v19.483
				c0,5.5,4.054,12.285,8.792,15.078l75.715,44.517"/>
		</g>
		<circle fill="#FFFFFF" cx="165.991" cy="288.94" r="3.255"/>
		<circle fill="#FFFFFF" cx="165.991" cy="41.94" r="3.255"/>
		<polygon fill="none" stroke="#FFFFFF" stroke-miterlimit="1" points="191.921,157.839 193.22,161.834 197.421,161.834 
			194.022,164.073 195.319,167.954 191.921,165.425 188.522,167.867 189.819,164.086 186.421,161.834 190.622,161.834 		"/>
		<polygon fill="none" stroke="#FFFFFF" stroke-miterlimit="1" points="140.921,157.839 142.22,161.834 146.421,161.834 
			143.022,164.073 144.319,167.954 140.921,165.425 137.522,167.867 138.819,164.086 135.421,161.834 139.622,161.834 		"/>
		<g>
			
				<line fill="none" stroke="#FFFFFF" stroke-width="1.25" stroke-miterlimit="1" x1="114.941" y1="219.912" x2="166.524" y2="168.329"/>
			
				<line fill="none" stroke="#FFFFFF" stroke-width="1.25" stroke-miterlimit="1" x1="166.462" y1="167.436" x2="221.63" y2="218.603"/>
			
				<line fill="none" stroke="#FFFFFF" stroke-width="1.25" stroke-miterlimit="1" x1="152.316" y1="182.48" x2="165.65" y2="194.313"/>
			
				<line fill="none" stroke="#FFFFFF" stroke-width="1.25" stroke-miterlimit="1" x1="145.483" y1="188.98" x2="153.483" y2="196.313"/>
		</g>
		<g>
			
				<line fill="none" stroke="#FFFFFF" stroke-width="1.25" stroke-miterlimit="1" x1="87.816" y1="210.563" x2="122.441" y2="175.813"/>
			
				<line fill="none" stroke="#FFFFFF" stroke-width="1.25" stroke-miterlimit="1" x1="121.566" y1="175.813" x2="140.285" y2="193.75"/>
			
				<line fill="none" stroke="#FFFFFF" stroke-width="1.25" stroke-miterlimit="1" x1="112.066" y1="185.813" x2="120.691" y2="193.438"/>
			
				<line fill="none" stroke="#FFFFFF" stroke-width="1.25" stroke-miterlimit="1" x1="107.441" y1="190.438" x2="112.691" y2="195.063"/>
		</g>
		<g>
			
				<line fill="none" stroke="#FFFFFF" stroke-width="1.25" stroke-miterlimit="1" x1="202.474" y1="200.016" x2="226.567" y2="175.813"/>
			
				<line fill="none" stroke="#FFFFFF" stroke-width="1.25" stroke-miterlimit="1" x1="225.692" y1="175.813" x2="244.411" y2="193.75"/>
			
				<line fill="none" stroke="#FFFFFF" stroke-width="1.25" stroke-miterlimit="1" x1="216.192" y1="185.813" x2="224.817" y2="193.438"/>
			
				<line fill="none" stroke="#FFFFFF" stroke-width="1.25" stroke-miterlimit="1" x1="211.567" y1="190.438" x2="216.817" y2="195.063"/>
		</g>
		<g>
			<line fill="none" stroke="#FFFFFF" stroke-miterlimit="1" x1="56.608" y1="186.334" x2="56.608" y2="144.334"/>
			<g>
				<path fill="none" stroke="#FFFFFF" stroke-miterlimit="1" d="M56.608,164.756l9.781,9.922 M56.577,164.803l-9.906,9.906"/>
				<path fill="none" stroke="#FFFFFF" stroke-miterlimit="1" d="M56.624,159.76l8.695,8.801 M56.569,159.795l-8.781,8.781"/>
				<path fill="none" stroke="#FFFFFF" stroke-miterlimit="1" d="M56.64,154.764l7.609,7.68 M56.562,154.788l-7.656,7.656"/>
				<path fill="none" stroke="#FFFFFF" stroke-miterlimit="1" d="M56.655,149.768l6.523,6.559 M56.554,149.78l-6.531,6.531"/>
				<path fill="none" stroke="#FFFFFF" stroke-miterlimit="1" d="M56.671,144.772l5.438,5.438 M56.546,144.772l-5.406,5.406"/>
			</g>
		</g>
		<g>
			<line fill="none" stroke="#FFFFFF" stroke-miterlimit="1" x1="274.608" y1="186.334" x2="274.608" y2="144.334"/>
			<g>
				<path fill="none" stroke="#FFFFFF" stroke-miterlimit="1" d="M274.608,164.756l9.781,9.922 M274.577,164.803l-9.906,9.906"/>
				<path fill="none" stroke="#FFFFFF" stroke-miterlimit="1" d="M274.624,159.76l8.695,8.801 M274.569,159.795l-8.781,8.781"/>
				<path fill="none" stroke="#FFFFFF" stroke-miterlimit="1" d="M274.64,154.764l7.609,7.68 M274.562,154.788l-7.656,7.656"/>
				<path fill="none" stroke="#FFFFFF" stroke-miterlimit="1" d="M274.655,149.768l6.523,6.559 M274.554,149.78l-6.531,6.531"/>
				<path fill="none" stroke="#FFFFFF" stroke-miterlimit="1" d="M274.671,144.772l5.438,5.438 M274.546,144.772l-5.406,5.406"/>
			</g>
		</g>
		<rect x="96.921" y="102.465" fill="none" width="136.842" height="33.553"/>
		<text transform="matrix(1 0 0 1 103.3418 125.8252)" fill="#FFFFFF" font-family="'Gotham-Black'" font-size="32">ADAMS</text>
		<rect x="117.315" y="90.624" fill="none" width="98.686" height="12.5"/>
		<text transform="matrix(1 0 0 1 147.0928 97.9238)" fill="#FFFFFF" font-family="'Gotham-Medium'" font-size="10">MOUNT</text>
		<rect x="96.579" y="132.729" fill="none" width="138.159" height="16.448"/>
		<text transform="matrix(1 0 0 1 101.2583 147.3286)" fill="#FFFFFF" font-family="'Gotham-Book'" font-size="20">CHALLENGE</text>
	</g>
</g>
<g>
	<rect x="881.372" y="-46.085" fill="#010101" width="330.263" height="373.685"/>
	<g>
		<g>
			<path fill="none" stroke="#FFFFFF" stroke-width="3" stroke-miterlimit="10" d="M956.898,108.028
				c0-5.5,3.893-12.259,8.649-15.019l73.701-42.769c4.757-2.76,12.542-2.76,17.299,0l73.701,42.769
				c4.757,2.76,8.649,9.519,8.649,15.019v85.612c0,5.5-3.893,12.259-8.649,15.019l-73.701,42.769c-4.757,2.76-12.542,2.76-17.299,0
				l-73.701-42.769c-4.757-2.76-8.649-9.519-8.649-15.019V108.028z"/>
		</g>
		<g>
			<path fill="none" stroke="#FFFFFF" stroke-width="3" stroke-miterlimit="10" d="M920.898,87.343c0-5.5,3.889-12.265,8.641-15.034
				l109.719-63.925c4.752-2.769,12.529-2.769,17.281,0l109.719,63.925c4.752,2.769,8.641,9.534,8.641,15.034v127.985
				c0,5.5-3.889,12.266-8.641,15.034l-109.719,63.922c-4.752,2.769-12.529,2.769-17.281,0l-109.719-63.922
				c-4.752-2.769-8.641-9.534-8.641-15.034V87.343z"/>
		</g>
		<g>
			<path fill="none" stroke="#FFFFFF" stroke-miterlimit="1" d="M1073.652,39.504l74.725,43.437
				c4.755,2.765,8.521,9.442,8.521,14.942v17.451"/>
		</g>
		<g>
			<path fill="none" stroke="#FFFFFF" stroke-miterlimit="1" d="M938.898,115.334V97.883c0-5.5,3.654-12.242,8.424-14.982
				l75.946-43.397"/>
		</g>
		<g>
			<path fill="none" stroke="#FFFFFF" stroke-linecap="round" stroke-miterlimit="1" d="M1073.48,262.816l60.251-35.36
				c4.742-2.786,11.859-6.992,15.895-9.352s7.272-8.786,7.272-14.286v-21.483"/>
		</g>
		<g>
			<path fill="none" stroke="#FFFFFF" stroke-linecap="round" stroke-miterlimit="1" d="M938.898,184.334v19.483
				c0,5.5,3.793,12.285,8.53,15.078l75.846,44.517"/>
		</g>
		<circle fill="#FFFFFF" cx="1048.468" cy="273.94" r="3.255"/>
		<circle fill="#FFFFFF" cx="1048.468" cy="26.94" r="3.255"/>
		<polygon fill="none" stroke="#FFFFFF" stroke-miterlimit="1" points="1074.398,142.839 1075.697,146.834 1079.898,146.834 
			1076.5,149.073 1077.797,152.954 1074.398,150.425 1071,152.867 1072.297,149.086 1068.898,146.834 1073.1,146.834 		"/>
		<polygon fill="none" stroke="#FFFFFF" stroke-miterlimit="1" points="1023.398,142.839 1024.697,146.834 1028.898,146.834 
			1025.5,149.073 1026.797,152.954 1023.398,150.425 1020,152.867 1021.297,149.086 1017.898,146.834 1022.1,146.834 		"/>
		<g>
			
				<line fill="none" stroke="#FFFFFF" stroke-width="1.25" stroke-miterlimit="1" x1="997.419" y1="204.912" x2="1049.002" y2="153.329"/>
			
				<line fill="none" stroke="#FFFFFF" stroke-width="1.25" stroke-miterlimit="1" x1="1048.939" y1="152.436" x2="1104.106" y2="203.603"/>
			
				<line fill="none" stroke="#FFFFFF" stroke-width="1.25" stroke-miterlimit="1" x1="1034.794" y1="167.48" x2="1048.128" y2="179.313"/>
			
				<line fill="none" stroke="#FFFFFF" stroke-width="1.25" stroke-miterlimit="1" x1="1027.961" y1="173.98" x2="1035.961" y2="181.313"/>
		</g>
		<g>
			
				<line fill="none" stroke="#FFFFFF" stroke-width="1.25" stroke-miterlimit="1" x1="970.294" y1="195.563" x2="1004.919" y2="160.813"/>
			
				<line fill="none" stroke="#FFFFFF" stroke-width="1.25" stroke-miterlimit="1" x1="1004.044" y1="160.813" x2="1022.763" y2="178.75"/>
			
				<line fill="none" stroke="#FFFFFF" stroke-width="1.25" stroke-miterlimit="1" x1="994.544" y1="170.813" x2="1003.169" y2="178.438"/>
			
				<line fill="none" stroke="#FFFFFF" stroke-width="1.25" stroke-miterlimit="1" x1="989.919" y1="175.438" x2="995.169" y2="180.063"/>
		</g>
		<g>
			
				<line fill="none" stroke="#FFFFFF" stroke-width="1.25" stroke-miterlimit="1" x1="1084.95" y1="185.016" x2="1109.044" y2="160.813"/>
			
				<line fill="none" stroke="#FFFFFF" stroke-width="1.25" stroke-miterlimit="1" x1="1108.169" y1="160.813" x2="1126.888" y2="178.75"/>
			
				<line fill="none" stroke="#FFFFFF" stroke-width="1.25" stroke-miterlimit="1" x1="1098.669" y1="170.813" x2="1107.294" y2="178.438"/>
			
				<line fill="none" stroke="#FFFFFF" stroke-width="1.25" stroke-miterlimit="1" x1="1094.044" y1="175.438" x2="1099.294" y2="180.063"/>
		</g>
		<g>
			<line fill="none" stroke="#FFFFFF" stroke-miterlimit="1" x1="939.086" y1="171.334" x2="939.086" y2="129.334"/>
			<g>
				<path fill="none" stroke="#FFFFFF" stroke-miterlimit="1" d="M939.086,149.756l9.781,9.922 M939.055,149.803l-9.906,9.906"/>
				<path fill="none" stroke="#FFFFFF" stroke-miterlimit="1" d="M939.102,144.76l8.695,8.801 M939.047,144.795l-8.781,8.781"/>
				<path fill="none" stroke="#FFFFFF" stroke-miterlimit="1" d="M939.117,139.764l7.609,7.68 M939.039,139.788l-7.656,7.656"/>
				<path fill="none" stroke="#FFFFFF" stroke-miterlimit="1" d="M939.133,134.768l6.523,6.559 M939.031,134.78l-6.531,6.531"/>
				<path fill="none" stroke="#FFFFFF" stroke-miterlimit="1" d="M939.148,129.772l5.438,5.438 M939.023,129.772l-5.406,5.406"/>
			</g>
		</g>
		<g>
			<line fill="none" stroke="#FFFFFF" stroke-miterlimit="1" x1="1157.086" y1="171.334" x2="1157.086" y2="129.334"/>
			<g>
				<path fill="none" stroke="#FFFFFF" stroke-miterlimit="1" d="M1157.086,149.756l9.781,9.922 M1157.055,149.803l-9.906,9.906"/>
				<path fill="none" stroke="#FFFFFF" stroke-miterlimit="1" d="M1157.102,144.76l8.695,8.801 M1157.047,144.795l-8.781,8.781"/>
				<path fill="none" stroke="#FFFFFF" stroke-miterlimit="1" d="M1157.117,139.764l7.609,7.68 M1157.039,139.788l-7.656,7.656"/>
				<path fill="none" stroke="#FFFFFF" stroke-miterlimit="1" d="M1157.133,134.768l6.523,6.559 M1157.031,134.78l-6.531,6.531"/>
				<path fill="none" stroke="#FFFFFF" stroke-miterlimit="1" d="M1157.148,129.772l5.438,5.438 M1157.023,129.772l-5.406,5.406"/>
			</g>
		</g>
		<rect x="979.398" y="87.465" fill="none" width="136.842" height="33.553"/>
		<text transform="matrix(1 0 0 1 985.8193 110.8252)" fill="#FFFFFF" font-family="'Gotham-Black'" font-size="32">ADAMS</text>
		<rect x="999.793" y="75.624" fill="none" width="98.685" height="12.5"/>
		<text transform="matrix(1 0 0 1 1029.5703 82.9238)" fill="#FFFFFF" font-family="'Gotham-Medium'" font-size="10">MOUNT</text>
		<rect x="979.057" y="117.729" fill="none" width="138.158" height="16.448"/>
		<text transform="matrix(1 0 0 1 983.7363 132.3286)" fill="#FFFFFF" font-family="'Gotham-Book'" font-size="20">CHALLENGE</text>
	</g>
</g>
</svg>
