<?xml version="1.0" encoding="utf-8"?>
<!-- Generator: Adobe Illustrator 15.1.0, SVG Export Plug-In . SVG Version: 6.00 Build 0)  -->
<!DOCTYPE svg PUBLIC "-//W3C//DTD SVG 1.1//EN" "http://www.w3.org/Graphics/SVG/1.1/DTD/svg11.dtd">
<svg version="1.1" id="Layer_1" xmlns="http://www.w3.org/2000/svg" xmlns:xlink="http://www.w3.org/1999/xlink" x="0px" y="0px"
	 width="2048px" height="1715px" viewBox="0 0 2048 1715" enable-background="new 0 0 2048 1715" xml:space="preserve">
<path fill-rule="evenodd" clip-rule="evenodd" fill="#FFFFFF" d="M200,49c-0.341,7.326,0.298,15.632-5,18
	c-4.6-3.067-3.586-11.748-10-13c-10.598,1.189-8.508,26.676-3,32c11.45,2.117,8.593-10.074,18-10c-5.368,24.484-58.84,20.865-58-6
	c0.651-20.818,30.183-22.809,52-18c1.352-0.982,1.999-2.668,3-4C198.615,47.718,198.722,48.945,200,49z"/>
<path fill-rule="evenodd" clip-rule="evenodd" fill="#FFFFFF" d="M246,49c21.918-2.272,53.96-2.477,54,20
	c0.052,29.766-83.083,32.779-86,4C212.237,55.612,226.201,51.052,246,49z M259,88c7.175-6.119,6.639-28.616,1-36
	C244.657,50.431,244.318,88.62,259,88z"/>
<path fill-rule="evenodd" clip-rule="evenodd" fill="#FFFFFF" d="M377,48c1.071,3.156,0.527,12.224-2,15
	c-6.121-5.545-12.447-10.886-25-10c-2.53,2.921-0.338,9.628,0,13c5.333,0,10.667,0,16,0c1.585,3.098,2.236,12.532-2,13
	c-4.34-3.326-3.64-11.694-13-10c-2.39,4.277,0.125,13.458-2,18c4.602,2.065,13.238,0.095,17,3c-15.859,2.911-45.81-0.792-65,2
	c0.919-5.747,11.643-1.69,16-4c0-11.667,0-23.333,0-35c-3.676-1.99-11.03-0.303-15-2c-0.615-0.89-1.208-1.789,0-2
	C325.015,46.681,352.322,48.656,377,48z"/>
<path fill-rule="evenodd" clip-rule="evenodd" fill="#FFFFFF" d="M467,49c0.876,2.39-1.289,9.006-2,13
	c-6.645-1.14-12.296-11.617-26-9c-2.236,3.214-0.549,9.418,0,13c5.501,0.499,13.103-1.103,17,1c2.337,3.577-0.06,9.526-2,12
	c-5.006-2.994-4.03-11.97-14-10c-2.638,4.028,0.501,13.834-2,18c4.709,1.957,13.431-0.097,17,3c-19.623,2.711-45.262-0.595-65,2
	c0.664-6.003,12.059-1.274,16-4c0-11.667,0-23.333,0-35c-3.283-3.051-14.575,1.908-15-4C414.024,47.337,443.976,47.337,467,49z"/>
<path fill-rule="evenodd" clip-rule="evenodd" fill="#FFFFFF" d="M480,48c23.786,2.214,51.579,0.42,77,1
	c0.074,5.074,0.237,10.237-2,13c-6.681-4.986-12.916-10.418-26-9c-2.027,3.005,0.207,8.663,1,12c5.582,2.017,12.247-1.787,17,2
	c0.664,5.331-0.774,8.56-3,11c-3.486-3.847-5.148-9.519-12-10c-4.843,2.49-3.789,10.878-4,18c14.667,0.333,22.95-5.716,31-12
	c0.879,7.213-1.868,10.799-3,16c-22.209-0.986-54.25,1.586-76,1c0.84-4.463,11.876-3.039,14-3c2.268-9.399,0.382-22.952,1-34
	C492.471,49.529,480.214,54.786,480,48z"/>
<path fill-rule="evenodd" clip-rule="evenodd" fill="#FFFFFF" d="M571,48c23.903,2.097,51.495,0.504,77,1
	c0.546,4.777,1.68,10.267-2,13c-6.089-5.245-12.236-10.431-25-9c-2.245,2.312-0.801,9.418,0,12c5.622,2.281,10.966-1.118,17,1
	c-0.243,4.09,0.974,9.641-2,11c-4.953-2.381-5.019-9.648-13-9c-4.673,2.327-2.013,11.987-4,17c13.309,2.895,23.87-5.403,32-11
	c0.419,7.753-2.043,12.624-5,17c-23.458-3.379-52.619,1.322-74,0c0.915-5.418,10.988-1.678,15-4c0.617-11.047-2.961-22.908,0-33
	C584.144,49.522,571.423,54.91,571,48z"/>
<path fill-rule="evenodd" clip-rule="evenodd" fill="#FFFFFF" d="M882,48c1.25,3.752,1.847,12.358,0,16
	c-7.491-4.255-15.279-13.281-26-11c-3.614,5.371-1.328,21.751-2,33c5.003,3.085,13.101,0.265,19,4c-19.936,2.066-48.624,0.706-67,1
	c1.445-5.222,12.053-1.28,16-4c2.806-8.861-0.775-24.108,2-33c-13.61-4.513-21.947,4.648-29,10c-4.022-3.389-2.669-11.81-2-15
	C820.726,48.02,850.677,47.794,882,48z"/>
<path fill-rule="evenodd" clip-rule="evenodd" fill="#FFFFFF" d="M972,49c1.011,3.361,0.997,7.066-1,13
	c-7.305-4.362-12.576-10.757-26-9c-2.245,2.312-0.801,9.418,0,12c5.741,2.161,11.134-1.286,17,1c0.911,1.889-0.122,8.748-1,12
	c-5.369-2.631-5.492-10.508-14-10c-3.556,3.444-2.999,11.001-3,18c14.678,0.344,22.557-6.11,31-12c0.46,7.794-1.859,12.808-5,17
	c-25.703-3.417-50.715,1.577-74,0c0.915-5.418,10.988-1.678,15-4c1.007-11.77-2.441-21.812,0-32c-1.47-5.53-12.777-1.224-16-5
	C914.93,47.478,947.142,49.803,972,49z"/>
<path fill-rule="evenodd" clip-rule="evenodd" fill="#FFFFFF" d="M1063,87c3.09,1.244,7.109,1.557,11,2c-5.331,5.432-16.232,3-26,3
	c-9.657,0-20.463,0-29,0c-0.779-5.446,8.216-1.118,9-5c-1.955-7.364-15.793-4.79-23-4c-1.675,1.659-0.796,5.871-1,9
	c-6.576-1.757-14.792-1.875-17-8c3.033-1.426,5.326,0.475,8,2c13.248-13.085,21.482-31.185,41-38
	C1047.162,58.838,1058.199,69.801,1063,87z M1009,79c4.333,0,8.667,0,13,0C1023.539,68.607,1007.944,69.815,1009,79z"/>
<path fill-rule="evenodd" clip-rule="evenodd" fill="#FFFFFF" d="M1216,48c23.974,2.026,51.445,0.554,77,1
	c-0.42,4.581,1.288,11.288-2,13c-4.644-2.814-11.816-11.425-25-9c-2.288,1.711-0.367,7.633-1,11c4.603,3.611,11.729-0.621,18,2
	c0.193,4.86,0.227,9.56-2,12c-4.48-3.186-5.067-10.266-13-10c-3.788,3.212-3.849,10.151-4,17c13.562,3.149,23.624-5.649,32-11
	c0,6.667-2.26,11.074-4,16c-26.166-1.146-53.441,1.865-76,1c1.55-5.117,11.738-1.596,16-4c-0.359-10.974-1.55-21.116-1-33
	C1228.471,49.529,1216.214,54.786,1216,48z"/>
<path fill-rule="evenodd" clip-rule="evenodd" fill="#FFFFFF" d="M1363,48c1.96,4.945-4.196,9.572-5,15
	c18.983,21.036-14.021,33.326-37,25c-2.156,1.49,1.094,2.823-2,4c-4.828-2.675-8.021-11.747-7-17c6.938,9.12,23.801,14.179,38,10
	c-12.101-8.385-39.302-3.547-38-22c1.058-14.989,27.188-13.702,46-12C1358.602,48.935,1359.547,47.213,1363,48z M1328,55
	c4.434,6.336,17.786,5.285,24,7C1349.414,54.396,1336.873,53.191,1328,55z"/>
<path fill-rule="evenodd" clip-rule="evenodd" fill="#FFFFFF" d="M1430,75c-2.613,2.054-1.513,7.82-3,11
	c3.131,3.535,12.312,1.022,16,4c-18.316,5.206-44.391-1.914-65,2c1.406-5.594,11.665-2.335,16-5c-0.401-12.067,0.338-22.996,1-34
	c-2.989-2.011-9.435-0.565-14-1c0-1,0-2,0-3c15.635-0.835,69.733-5.25,74,8C1458.937,69.224,1443.471,75.177,1430,75z M1430,71
	c17.136,2.993,14.106-21.088-1-18C1428.917,55.763,1428.265,66.816,1430,71z"/>
<path fill-rule="evenodd" clip-rule="evenodd" fill="#FFFFFF" d="M1532,69c11.667,5.666,17.847,16.82,32,20
	c-6.239,6.273-25.385,2.076-35,2c-2.037-9.63-4.605-18.728-16-19c-2.525,3.141,0.339,11.672-2,15c3.888,1.779,10.405,0.928,14,3
	c-16.406,2.424-45.849,0.897-64,1c1.612-4.388,9.445-2.555,15-3c1.502-10.831,1.88-22.787,2-35c-3.108-2.558-11.892,0.558-15-2
	c15.552-4.334,75.438-8.209,76,9C1539.206,66.305,1535.68,65.213,1532,69z M1512,67c5.07-1.802,10.281,0.46,14-1
	c0.373-10.04-5.109-14.224-15-14C1511.46,56.874,1509.953,63.713,1512,67z"/>
<path fill-rule="evenodd" clip-rule="evenodd" fill="#FFFFFF" d="M1653,49c-1.341,2.685,1.003,8.198-2,13
	c-7.118-4.549-12.63-10.704-26-9c-2.606,2.673-0.2,8.817,0,12c6.416,1.463,9.308-0.893,17,1c1.398,4.517,0.552,8.914-2,12
	c-4.118-3.215-4.833-9.833-12-10c-5.646,1.687-3.565,11.101-4,18c14.744,0.411,22.604-6.063,31-12c0.713,7.046-2.202,10.465-3,16
	c-26.161-1.16-53.388,1.943-76,1c0.915-5.418,10.988-1.678,15-4c0.215-12.684-0.455-22.204,0-33c-2.447-3.886-12.173-0.494-15-4
	c-0.162-1.163,0.221-1.779,1-2C1600.409,50.258,1627.944,48.389,1653,49z"/>
<path fill-rule="evenodd" clip-rule="evenodd" fill="#FFFFFF" d="M1723,48c-0.17,6.83-4.21,9.79-6,15
	c19.218,20.212-12.806,33.642-35,25c-3.629-0.962-0.84,4.493-4,4c-4.7-2.804-7.323-12.444-7-17c5.307-0.64,4.271,5.063,7,7
	c8.028,2.817,23.481,7.782,31,2c-13.927-5.907-42.512-4.25-37-24c3.558-12.75,28.393-9.809,45-9
	C1717.848,48.848,1719.463,47.463,1723,48z M1687,55c4.147,6.186,15.728,4.939,24,7C1708.606,54.204,1695.932,53.133,1687,55z"/>
<path fill-rule="evenodd" clip-rule="evenodd" fill="#FFFFFF" d="M1789,49c-0.815,5.851-4.72,8.614-6,14
	c18.609,21.634-13.807,32.878-37,25c-2.715-0.715,0.715,4.715-2,4c-4.828-2.675-8.021-11.747-7-17c6.087,8.251,25.518,15.724,37,9
	c-14.549-3.772-46.924-9.083-35-27c6.819-10.246,28.711-6.094,45-6C1782.474,46.713,1787.837,47.744,1789,49z M1753,57
	c6.773,2.894,15.823,3.51,24,5C1775.223,54.999,1758.334,50.923,1753,57z"/>
<path fill-rule="evenodd" clip-rule="evenodd" fill="#FFFFFF" d="M1835,49c18.241-1.787,56.321-2.544,53,23
	c-1.728,13.289-17.709,18.727-33,20c-17.5,1.457-46.23-0.955-51-14C1797.088,59.096,1811.812,51.272,1835,49z M1848,88
	c6.886-7.186,6.801-28.851,0-36C1833.231,51.936,1832.255,88.719,1848,88z"/>
<path fill-rule="evenodd" clip-rule="evenodd" fill="#FFFFFF" d="M710,67c7.874-3.369,17.7-0.971,18,7
	C728.787,94.914,688.567,76.17,710,67z"/>
<path fill-rule="evenodd" clip-rule="evenodd" fill="#FFFFFF" d="M1135,67c11.242-3.896,17.454,0.451,17,8
	C1150.812,94.736,1111.828,75.031,1135,67z"/>
<path fill-rule="evenodd" clip-rule="evenodd" fill="#FFFFFF" d="M340,227c5.817,11.85,14.069,21.264,17,36
	c-16.178,21.672-37.544-17.916-41-36C323.417,225.915,332.703,225.4,340,227z"/>
<path fill-rule="evenodd" clip-rule="evenodd" fill="#FFFFFF" d="M553,380c27.601-8.843,22.266,83.915,8,88
	C531.335,476.496,534.215,386.019,553,380z"/>
<path fill-rule="evenodd" clip-rule="evenodd" fill="#FFFFFF" d="M1348,445c-10.433-0.901-24.724,2.057-32-2
	c4.795-6.871,10.736-12.597,16-19C1340.417,427.917,1345.374,435.292,1348,445z"/>
<path fill-rule="evenodd" clip-rule="evenodd" fill="#FFFFFF" d="M704,718c-22,0-44,0-66,0c-0.434-3.233-3.364-3.969-5-6
	c11.863-18.47,22.312-38.354,38-53C687.587,673.079,698.005,693.329,704,718z"/>
<path fill-rule="evenodd" clip-rule="evenodd" fill="#FFFFFF" d="M669,1416c16.593,29.287,13.756,100.712,2,135
	c-14.909-5.878-16.949-31.465-17-55c-0.062-28.495,1.412-67.691,13-80C667.667,1416,668.333,1416,669,1416z"/>
<path fill-rule="evenodd" clip-rule="evenodd" fill="#FFFFFF" d="M838,1416c16.863,30.731,13.816,101.059,2,135
	c-16.941-6.208-17.284-39.739-16-68c1.242-27.331,0.446-55.958,12-67C836.667,1416,837.333,1416,838,1416z"/>
<path fill-rule="evenodd" clip-rule="evenodd" fill="#FFFFFF" d="M1470,1550c-13.325-1.633-16.123-24.058-17-44
	c-1.263-28.728,0.348-77.378,13-90c0.667,0,1.333,0,2,0C1484.597,1446.753,1481.969,1516.129,1470,1550z"/>
<path fill-rule="evenodd" clip-rule="evenodd" fill="#FFFFFF" d="M1648,1472c-7.306-1.831-15.575-0.814-22,1
	c-1.875-16.125-0.659-35.341-1-53C1646.141,1415.354,1653.443,1449.822,1648,1472z"/>
<path fill-rule="evenodd" clip-rule="evenodd" fill="#FFFFFF" d="M530,1419c19.048,3.245,20.92,30.435,16,49
	c-3.663,3.362-12.08,3.778-18,2c0.733-17.066-1.133-31.533-1-48C526.818,1419.818,527.818,1418.818,530,1419z"/>
<path fill-rule="evenodd" clip-rule="evenodd" fill="#FFFFFF" d="M1179,1455c-7.629-2.462-14.018-5.142-23-9
	c-5.7-2.448-18.723-6.138-19-12c-0.21-4.448,4.863-7.351,10-8C1162.994,1423.978,1177.726,1439.056,1179,1455z"/>
<path fill-rule="evenodd" clip-rule="evenodd" fill="#FFFFFF" d="M532,1488c29.019,2.227,31.219,70.633-5,63
	c-3.617-18.352,1.799-39.453,2-60C528.818,1488.818,529.818,1487.818,532,1488z"/>
<path fill-rule="evenodd" clip-rule="evenodd" fill="#FFFFFF" d="M332,1626c-0.068,5.599-8.675,2.658-12,5
	c-5.177,9.823-0.922,29.078-5,40c-15.998-4.336-27.246-13.42-41-20c-4.618,11.296,8.158,13.833,16,16
	c-8.634,3.225-23.866,0.078-36,2c0.507-5.493,10.509-1.49,12-6c1.978-9.552,3.59-24.048-1-32c-3.964-0.369-9.583,0.916-12-1
	c6.357-6.31,23.847-1.486,35-3c7.198,5.469,15.135,10.198,24,14c3.903-9.413-10.694-8.51-14-14
	C310.068,1627.401,320.996,1626.662,332,1626z"/>
<path fill-rule="evenodd" clip-rule="evenodd" fill="#FFFFFF" d="M143,1627c1.24,4.532-3.552,10.901-6,15
	c20.292,19.346-14.208,34.947-34,24c-3.904-0.237-1.825,5.508-6,5c-2.603-5.064-4.9-10.434-6-17c7.996,7.082,24.122,15.311,39,9
	c-13.354-6.601-43.1-4.229-38-24C96.375,1622.039,129.084,1633.486,143,1627z M107,1636c8.259,1.741,16.578,3.422,25,5
	C130.886,1633.321,112.722,1629.392,107,1636z"/>
<path fill-rule="evenodd" clip-rule="evenodd" fill="#FFFFFF" d="M230,1667c3.395,0.271,8.107-0.774,10,1
	c-5.332,5.432-16.233,3-26,3c-9.657,0-20.462,0-29,0c-0.539-5.539,9.124-0.876,9-6c-2.318-6.066-16.601-4.199-23-3
	c-2.045,1.621,0.045,7.379-2,9c-4.845-2.488-12.814-1.853-15-7c0.522-4.805,5.383,0.534,8,0c12.905-12.762,20.616-30.717,40-37
	C214.356,1637.311,224.493,1649.841,230,1667z M174,1657c4.686-0.647,11.975,1.308,15-1c-2.574-2.427-3.518-6.481-8-7
	C178.539,1651.539,175.833,1653.833,174,1657z"/>
<path fill-rule="evenodd" clip-rule="evenodd" fill="#FFFFFF" d="M342,1668c3.141-2.525,11.672,0.339,15-2
	c-0.9-11.041-1.277-21.074,0-32c-1.847-5.802-10.362-0.517-14-3c19.045-5.147,61.83-9.068,71,6
	C433.771,1669.486,368.588,1677.878,342,1668z M390,1666c19.946,0.229,19.173-34.914,0-35
	C388.349,1640.436,388.349,1656.564,390,1666z"/>
<path fill-rule="evenodd" clip-rule="evenodd" fill="#FFFFFF" d="M512,1628c-0.497,4.17-6.517,2.816-9,5
	c1.987,7.346,5.466,13.201,11,17c4.91-3.424,8.718-7.948,10-15c-0.351-3.316-5.764-1.569-9-2c3.501-6.165,15.208-4.125,23-6
	c-11.712,16.954-23.869,33.464-42,44c-6.001-5.999-11.379-12.62-18-18c-9.557,2.903-13.341,16.823-23,17
	c-14.621,0.269-18.177-26.998-27-38c-2,0-4,0-6,0c6.925-6.006,23.708-2.206,36-3c3.805-0.246,6.851-1.724,10-1
	c-0.116,4.218-5.353,3.314-9,4C474.822,1637.367,496.496,1626.254,512,1628z M463,1639c0.885,6.115,4.258,9.742,9,12
	c0.261-1.405,2.193-1.141,3-2C472.89,1642.703,471.382,1636.58,463,1639z"/>
<path fill-rule="evenodd" clip-rule="evenodd" fill="#FFFFFF" d="M611,1628c-0.942,4.725-9.672,1.661-13,4
	c-2.26,8.74-0.388,21.612-1,32c2.029,3.971,11.779,0.222,14,4c-8.588,4.947-27.914,0.085-44,1c-6.392,0.363-12.071,2.527-17,1
	c1.418-4.915,10.106-2.561,15-4c0.615-10.718-1.264-23.931,1-33c-3.812-2.521-11.325-1.342-16-3c-0.163-1.162,0.221-1.779,1-2
	C566.925,1628.217,594.961,1627.587,611,1628z"/>
<path fill-rule="evenodd" clip-rule="evenodd" fill="#FFFFFF" d="M672,1627c5.609,3.042,0.567,14.911-2,19
	c-5.392-3.275-4.697-12.637-12-14c-8.445,3.407-8.503,28.411-1,33c9.638,1.958,9.455-11.194,15-10c5.367,10.382-10.659,15.064-20,16
	c-17.505,1.754-40.775-5.767-35-28c4.304-16.568,34.038-15.188,51-13C670.63,1630.296,668.787,1626.12,672,1627z"/>
<path fill-rule="evenodd" clip-rule="evenodd" fill="#FFFFFF" d="M744,1628c-3.916,3.418-6.414,8.252-5,17
	c3.378,2.847,8.23,1.596,13,1c0-4.333,0-8.667,0-13c-0.707-2.627-4.693-1.974-6-4c14.515-3.818,35.416-1.251,53-2
	c-1.032,5.634-10.692,2.641-15,5c-0.609,10.058,1.255,22.589-1,31c1.822,5.512,13.445,1.222,16,6c-12.587,3.057-35.693-0.16-53,1
	c0.233-3.1,3.546-3.12,6-4c0.035-5.875,0.104-11.87-1-14c-2.147-1.854-7.325-0.675-11-1c-1.662,3.005-0.753,8.58-2,12
	c-0.075,4.741,7.071,2.262,7,7c-18.011-0.639-39.008,0.939-54,0c1.042-5.625,12.108-1.225,15-5c-1.968-9.032-0.595-21.405-1-32
	c-4.177-1.823-11.236-0.764-15-3C702.702,1623.099,727.631,1628.696,744,1628z"/>
<path fill-rule="evenodd" clip-rule="evenodd" fill="#FFFFFF" d="M812,1627c24.135,1.865,51.334,0.666,77,1
	c-0.419,4.58,1.288,11.288-2,13c-5.478-4.906-12.057-10.612-25-10c-2.188,2.579-0.894,10.184,0,13c5.745,0.255,12.749-0.749,17,1
	c-0.243,4.091,0.974,9.641-2,11c-6.975-13.308-20.936-10.163-16,9c13.883-0.451,22.315-6.352,31-12c0.165,6.831-2.027,11.307-4,16
	c-25.927-0.906-53.997,1.31-76,1c1.715-4.618,9.081-3.586,15-4c3.199-9.883-2.573-23.688,1-34
	C823.927,1629.073,813.606,1632.394,812,1627z"/>
<path fill-rule="evenodd" clip-rule="evenodd" fill="#FFFFFF" d="M960,1627c-0.699,5.968-4.199,9.135-6,14
	c19.07,20.637-13.762,35.548-35,25c-3.904-0.237-1.825,5.508-6,5c-1.606-5.258-6.551-11.846-5-17c5.27-0.1,4.594,5.625,9,8
	c7.518,4.053,18.97,2.957,29,2c-8.376-8.004-47.351-4.771-37-27c5.529-11.875,29.456-7.844,45-7
	C954.359,1627.359,956.402,1626.402,960,1627z M924,1634c1.229,5.251,17.015,4.21,24,7C945.954,1633.271,933.09,1631.39,924,1634z"
	/>
<path fill-rule="evenodd" clip-rule="evenodd" fill="#FFFFFF" d="M1154,1627c1.99,4.67-3.751,9.33-5,14
	c18.542,20.287-13.563,35.665-35,25c-4.534,0.604-0.501,4.596-6,5c-1.516-5.168-6.674-11.97-5-17c4.608-0.608,3.567,4.433,6,6
	c7.585,3.433,22.491,7.886,32,3c-12.67-7.454-39.15-3.07-38-21c0.999-15.572,28.105-14.46,46-12
	C1149.602,1627.935,1150.547,1626.213,1154,1627z M1119,1634c4.648,5.686,16.312,4.354,24,7
	C1140.927,1633.298,1127.968,1631.513,1119,1634z"/>
<path fill-rule="evenodd" clip-rule="evenodd" fill="#FFFFFF" d="M1287,1628c-1.865,4.468-11.58,1.086-14,5c0,10.333,0,20.667,0,31
	c2.744,3.589,11.148,1.519,15,4c-6.037,5.424-18.343,3-29,3c-10.981,0-22.539,0.783-31-1c2.271-3.729,9.044-2.956,14-4
	c0-4.667,0-9.333,0-14c-11.215,2.452-13.439,13.895-23,18c-9.732-4.934-16.67-12.664-26-18c-6.504,9.201,7.268,14.467,15,16
	c-7.776,3.453-25.458,1.565-35,2c1.274-4.059,8.627-2.039,11-5c0.923-8.853,2.145-22.375,0-31c-1.458-3.875-10.209-0.458-13-3
	c4.243-5.083,14.865-3.479,22-3c19.414,1.302,28.944,12.764,39,22c9.936-4.73,16.353-12.98,23-21
	C1264.489,1628.147,1277.317,1625.328,1287,1628z"/>
<path fill-rule="evenodd" clip-rule="evenodd" fill="#FFFFFF" d="M1292,1656c-0.087-5.754-0.216-11.549,1-16
	c12.56-18.229,82.88-21.212,84,7C1378.211,1677.479,1305.548,1679.112,1292,1656z M1336,1667c6.902-6.879,7.563-31.531-1-37
	C1322.755,1631.458,1320.969,1667.285,1336,1667z"/>
<path fill-rule="evenodd" clip-rule="evenodd" fill="#FFFFFF" d="M1422,1628c18.831-2.114,61.225-3.425,55,25
	c-6.041,27.583-97.341,25.357-84-11C1396.027,1633.75,1404.641,1629.949,1422,1628z M1437,1667c6.586-7.371,7.702-31.139-1-37
	C1423.317,1632.5,1421.257,1666.694,1437,1667z"/>
<path fill-rule="evenodd" clip-rule="evenodd" fill="#FFFFFF" d="M1583,1628c1.631,3.426,1.915,12.913-1,15
	c-6.929-5.404-12.536-12.13-25-12c-3.781,5.884-1.255,22.264-2,34c5.306,2.361,16.192-0.859,18,5c-21.447-0.111-47.844,0.152-66,0
	c0.915-5.418,10.988-1.679,15-4c3.522-8.478,1.436-22.564,2-34c-12.646-3.714-21.315,5.316-28,11c-3.901-1.766-2.648-8.685-3-14
	C1519.482,1625.801,1555.098,1626.451,1583,1628z"/>
<path fill-rule="evenodd" clip-rule="evenodd" fill="#FFFFFF" d="M1652,1629c-0.621,3.046-5.379,1.954-6,5c1.196,2.804,1.1,6.9,1,11
	c3.596,3.064,7.744,1.109,13,1c0-4.333,0-8.667,0-13c-0.043-3.624-7.1-0.234-6-5c16.254-1.746,35.254-0.746,53-1
	c-1.032,5.634-10.692,2.641-15,5c-0.768,7.26,1.239,23.18-1,32c3.51,3.156,11.33,2.003,16,4c-9.269,5.465-35.54,0.165-53,2
	c-0.43-4.43,5.828-2.172,6-6c-1.331-3.003-1.017-7.65-1-12c-3.272-2.032-10.753-1.167-13,1c0,3.666,0,7.334,0,11
	c0.498,3.835,7.394,1.273,7,6c-17.901-0.565-39.176,0.819-54,0c1.229-4.771,9.922-2.078,14-4c0-10.667,0-21.333,0-32
	c-3.08-2.919-9.596-2.404-15-3c0-1,0-2,0-3C1613.992,1626.41,1635.312,1626.188,1652,1629z"/>
<path fill-rule="evenodd" clip-rule="evenodd" fill="#FFFFFF" d="M1780,1627c-0.102,6.231-10.003,2.664-14,5
	c0.471,11.471-0.473,21.527-1,32c2.135,4.198,12.918-0.251,15,4c-9.524,4.918-28.118,0.097-44,1c-6.322,0.359-12.032,2.523-17,1
	c1.182-5.151,10.547-2.12,15-4c0-11,0-22,0-33c-2.718-3.949-14.084,0.751-15-5C1735.504,1627.492,1761.755,1629.006,1780,1627z"/>
<path fill-rule="evenodd" clip-rule="evenodd" fill="#FFFFFF" d="M1793,1628c22.126-0.457,51.674,0.324,77,0
	c-0.42,4.58,1.288,11.288-2,13c-4.909-4.185-13.679-12.465-25-9c-2.288,1.712-0.367,7.633-1,11c4.202,2.465,13.708-0.375,18,2
	c1.015,4.048,0.73,8.279-2,11c-4.604-2.73-5.171-9.496-13-9c-4.004,2.996-3.197,10.803-4,17c12.7,2.286,23.931-5.343,32-11
	c0.554,7.221-1.941,11.392-4,16c-25.369-0.945-56.578,1.5-75,1c2.842-5.698,8.595-2.807,15-4c0.793-11.854-2.594-22.379,0-33
	C1805.979,1629.021,1796.303,1631.697,1793,1628z"/>
<path fill-rule="evenodd" clip-rule="evenodd" fill="#FFFFFF" d="M1941,1627c-0.473,6.194-4.15,9.183-6,14
	c19.295,20.139-13.282,35.823-34,25c-3.502-0.169-3.148,3.519-5,5c-4.511-2.992-7.458-12.311-7-17c8.231,7.024,20.094,14.197,38,10
	c-10.976-9.359-39.226-3.437-38-22c1.004-15.218,28.089-14.22,46-12C1935.849,1627.848,1937.463,1626.463,1941,1627z M1905,1636
	c7.793,1.873,16.207,3.127,24,5C1928.037,1633.465,1910.318,1629.518,1905,1636z"/>
<path fill-rule="evenodd" clip-rule="evenodd" fill="#FFFFFF" d="M1025,1645c9.516-1.657,14.664,1.416,14,9
	C1037.156,1675.056,996.323,1649.994,1025,1645z"/>
<path fill-rule="evenodd" clip-rule="evenodd" fill="#FFFFFF" d="M137,137c591.317,0,1182.68,0,1774,0
	c-0.006,208.867,0.008,440.314,0,656c-0.001,14.605,2.488,31.497,0,43c-2.157,9.974-14.839,22.729-23,31
	c-8.319,8.432-21.713,19.924-32,21c-12.142,1.27-27.702-5.648-40-10c-21.462-7.594-40.344-13.722-53-29
	c-4.777,0.912-5.948,10.688-10,9c-14.186-2.464-21.068-11.84-35-13c-29.095-2.422-56.045,21.945-76,32
	c-4.781-7.093-11.516-11.711-18-15c-20.145-10.22-54.39-22.11-78-14c-14.114,4.849-18.332,21.979-31,26
	c-27.139,8.616-38.078-24.768-63-25c-10.875-0.102-28.357,10.527-43,16c-16.908,6.319-30.952,16.317-52,15
	c-13.124-0.821-28.494-6.631-43-10c-19.418-4.511-33.01-14.433-54-12c-14.039,1.627-23.367,8.527-36,14
	c28.049,36.951,97.909,37.424,127,70c-11.896-2.91-20.548,7.761-31,7c-9.314-0.678-21.606-11.666-31-18
	c-9.979-6.729-18.385-16.856-29-19c-7.618-1.538-16.748,2.246-24,1c-15.691-2.696-40.368-34.617-49-47
	c-5.299-7.602-6.431-18.858-16-22c-5.372,2.628-1.783,14.217-7,17c-20.001-0.236-36.166-6.331-51-13
	c-14.617-6.572-30.071-11.675-43-20c-17.494-11.265-27.23-35.512-54-35c-5.009,17.917,0.469,30.213-9,45
	c-6.764,10.563-19.44,12.129-21,25c-1.425,11.762,5.285,21.409,13,29c-7.849-2.985-10.367-5.513-19-5
	c-10.362,0.615-19.928,8.807-30,7c-10.344-1.855-12.941-16.179-23-17c-13.796-1.127-19.012,13.415-33,13
	c-4.88-3.567,4.303-6.73,5-11c-25.38-2.407-45.606-23.912-72-27c-26.672-3.121-38.255,17.338-61,19c-13.2,0.965-27.057-5.59-41-10
	c-42.557-13.461-77.547-19.683-115-37c-8.948,5.538-12.18,16.35-23,18c-6.995,1.067-8.688-4.304-18-3
	c-8.461,1.185-14.558,10.219-21,16c-10.689,9.591-24.11,18.796-45,17c-22.758-1.956-41.749-21.498-65-20
	c-16.116,1.038-28.503,17.256-52,13c-27.048-4.898-51.84-27.123-84-24c-29.347,2.85-45.907,24.231-72,34
	c-8.007,2.997-18.992,5.557-29,8c-19.945,4.868-39.268,7.85-51-5c-19.624-21.492-13-74.168-13-118c0-206.222,0-411.083,0-620
	C137.21,138.29,135.295,137.41,137,137z M1174,187c-1.324-3.914-5.218-3.818-9-4c-7.575-0.365-21.768,4.046-38,5
	c-39.182,2.302-95.359,1.54-128-1c-7.443-0.579-22.641-4.891-22,5c0.484,7.472,15.993,7.343,24,8c11.28,0.926,21.351,0.292,27,5
	c-6.363,35.13-0.282,85.208-4,120c-14.535,5.465-42.115-2.115-47,13c12.561,7.837,29.896,0.377,47-1c36.759-2.96,74.428-0.597,109,2
	c15.139,1.137,39.123,9.919,43-8c-9.525-9.475-36.186-1.814-47-10c-2.929-39.22,2.187-75.77,1-118
	C1135.236,195.964,1179.398,202.958,1174,187z M1219,189c-1.148,16.935-1.209,39.514,2,52c2.989,2.011,9.435,0.565,14,1
	c6.84-6.605,6.16-16.16,13-23c14.695-14.696,43.145-20.923,69-17c1.631,41.621,1.581,84.145-3,123c-14.956,6.659-48.77-3.035-52,14
	c5.33,5.203,14.487,2.507,21,2c53.165-4.137,120.05-3.328,173-1c6.35,0.279,19.045,4.597,22-3c-8.664-17.336-47.146-4.854-61-17
	c0.001-40.333,1.604-79.063,3-118c21.949-7.088,52.837,7.723,67,22c4.289,4.324,7.358,16.082,13,17c18.744,3.049,12.908-45.466,6-57
	C1412.184,183.769,1308.102,181.25,1219,189z M477,188c-1.276-5.518-6.825-3.84-11-3c-39.624,7.973-98.183,20.231-144,24
	c-6.106,0.502-15.686,3.986-17-5c8.6-5.4,27.897-0.103,29-13c-11.553-6.866-29.978,0.164-49,1c-29.625,1.302-55.648-1.286-83-1
	c-6.937,0.073-19.399-2.317-17,9c4.216,3.784,12.645,3.355,20,4c12.99,23.802,22.33,51.987,35,77c12.267,24.216,24.636,50.856,52,60
	c29.069-17.264,48.293-44.374,75-64c20.948,21.385,35.045,49.622,62,65c36.133-32.584,75.038-65.823,99-108
	c3.484-6.133,5.001-14.211,9-21c6.091-10.342,23.94-13.124,23-28c-10.346-1.614-24.221,0.585-41,4c-10.668,2.171-35.268,5.481-35,13
	c0.391,11,21.284,2.338,29,8c-1.224,27.776-13.716,44.284-31,56c-20.256-10.744-27.239-34.761-35-58
	C448.646,199.941,479.505,198.833,477,188z M788,186c-6.43,0.309-15.473-2.395-20,4c0.984,10.016,14.772,7.228,20,13c0,16,0,32,0,48
	c-11.068,5.078-29.078,3.973-42,1c-0.438-16.562-1.487-32.513-2-49c5.512-3.488,13.337-4.663,18-9c-0.411-10.499-15.441-8-28-8
	c-35.554,0-59.262-1-98-1c-16.428,0-47.917-3.406-50,5c-3.821,15.417,36.706,10.272,45,13c9.024,4.899,4.57,15.881,4,27
	c-1.426,27.795,2.013,65.655,2,92c-9.146,12.52-43.388-0.055-48,17c8.664,7.083,21.352,2.906,33,2c35.591-2.77,81.447-3.66,118-2
	c7.547,0.343,20.656,4.467,25-3c-0.665-11.002-17.721-5.613-21-14c-2.488-15.209,0.432-34.457,1-47c8.109-4.267,29.661-4.489,39-1
	c1.536,16.131,1.657,33.676,2,51c-1.051,3.737-18.953,1.623-18,11c0.945,9.299,21.241,4.297,28,4c37.248-1.638,84.808-2.297,120,1
	c10.725,1.005,24.708,3.516,21-10c-13.781-6.885-40.717-0.616-49-13c6.564-31.607,2.183-76.042,2-115
	c11.78-10.553,47.346,2.679,49-18C889.85,183.088,835.438,183.724,788,186z M1553,184c-1.464,0.87-3.17,1.497-3,4
	c7.753,14.247,40.504,3.497,50,16c-3.901,39.819,2.724,81.518,0,120c-13.658,8.008-48.074-4.741-49,16
	c38.218,2.011,80.805-1.969,123-4c20.193-0.972,41.264-0.126,62-1c21.128-0.891,41.859,4.331,60,0c5.304-17.614,14.317-39.06,12-58
	c-12.312-2.944-11.778,8.492-17,15c-7.414,9.24-24.047,15.216-37,20c-14.076,5.199-30.655,10.085-46,9
	c-3.995-20.274-2.016-51.145,8-64c26.789-1.789,30.576,19.424,41,34c11.479-4.644,11.23-25.936,9-41
	c-13.412-9.087-40.232,1.414-55-6c-1.51-12.556-7.947-34.425,0-44c36.042,0.292,65.605,7.061,74,35
	c20.176,0.479,13.172-31.453,13-48C1719.505,185.711,1630.995,191.055,1553,184z M1012,372c-11.434-0.021-25.247-4.556-34,2
	c12.876,7.459,37.504,8.493,33,30c-19.931-2.616-38.005-29.241-56-33c-11.077-2.313-26.389,0-39,0c-12.921,0-27.351-2.801-35,5
	c3.698,8.799,17.306,1.5,26,5c9.043,16.024,13.887,77.107-5,84c-6.641,2.424-16.161-3.539-18,7c15.812,2.987,41.71-0.922,62,0
	c5.422,0.246,13.114,4.2,16-2c-15.821-7.646-45.802-15.551-34-41c28.982,17.018,53.08,38.92,89,49c9.889-26.133,0.247-69.954,10-98
	c11.34-1.66,25.508-0.492,28-11C1042.003,366.606,1026.711,372.027,1012,372z M1779,372c-10.347-0.019-27.267-4.512-35,2
	c12.924,7.411,37.367,8.63,33,30c-10.29-1.614-18.322-9.474-28-16c-7.933-5.35-19.252-15.239-27-17c-11.244-2.555-27.134,0-40,0
	c-13.081,0-27.548-2.991-35,5c3.726,8.826,17.429,1.623,26,5c9.926,18.512,13.285,73.473-6,84c-19.06-8.917-34.191,8.585-48,18
	c-13.005,8.867-25.781,15.337-34,24c19.099,6.845,36.248-1.187,55-7c12.717-3.942,26.139-7.308,33-15c0.948-4.331-1.458-10.475,0-12
	c16.306-4.526,43.033,3.767,55-3c-10.178-7.644-27.818-8.037-34-21c-1.846-3.872-5.676-14.173,0-20c28.59,16.417,54.524,40.8,89,48
	c9.882-25.785,0.275-71.058,10-97c11.499-1.501,25.471-0.529,28-11C1808.188,366.465,1793.845,372.027,1779,372z M436,371
	c-15.314,0.803-35.195,1.076-48,4c-17.134,17.199-30.629,38.037-51,52c-20.152-10.266-33.451-41.522-58-50
	c-11.404-3.938-26.997-3.384-41-4c-13.159-0.579-31.035-3.331-37,6c8.779,9.118,23.938-1.441,30,9c10.21,17.587-3.266,54.851-1,76
	c-5.002,5.756-22.753,3.79-24,10c9.155,7.327,26.651,1.675,42,1c12.822-0.563,25.909,1.52,35-1c-8.13-8.046-27.456-10.398-34-21
	c-2.733-4.428-6.404-14.681-1-19c6.072-4.854,22.405,14.482,29,20c11.45,9.58,19.918,16.187,31,23
	c18.094-12.906,25.514-36.486,47-46c1.611,9.396,1.706,25.618,0,35c-10.434,2.899-26.332,0.335-30,10c30.881,1.501,64.013,2,96,2
	c12.521,0,32.705,4.227,36-6c-5.471-8.529-26.638-1.362-32-10c0-26,0-52,0-78c8.296-5.37,25.358-1.976,32-9
	C453.582,366.956,443.688,370.597,436,371z M470,401c-8.285,14.903-8.757,39.777,3,54c32.465,39.274,148.509,25.863,170-7
	c5.847-8.941,10.604-27.485,5-43c-11.574-32.04-57.191-36.039-100-34C510.986,372.763,482.023,379.372,470,401z M656,370
	c-1.464,0.87-3.169,1.497-3,4c3.98,10.02,23.64,4.359,32,10c-19.819,93.892,91.076,119.071,137,70c6.862-7.332,12.692-21.295,13-33
	c0.415-15.783-3.082-26.49,4-35c5.594-6.722,21.635-4.17,24-15c-18.639,0-41.001,0-59,0c-5.364,0-14.006-2.402-17,3
	c0.027,7.973,11.579,4.421,18,6c30.507,25.935,7.989,93.306-33,74c-3.379-1.591-9.119-8.167-11-12c-5.789-11.796-8.463-49.498,1-58
	c5.271-4.735,16.881-0.443,18-11C741.255,367.783,694.538,373.453,656,370z M1079,374c-1.659,10.281-1.792,26.915,2,35
	c0.744,2.255,5.609,0.391,8,1c5.084-3.81,4.256-9.415,8-14c9.74-11.927,31.149-15.872,48-13c-0.95,29.243,2.373,60.25-3,83
	c-10.241,4.426-31.209-1.875-35,9c10.925,4.86,25.049,0.613,39,0c36.154-1.589,78.102,3.377,108,0c-5.096-13.238-32.889-3.778-42-13
	c0.889-26.445,1.01-53.657,3-79c12.075-4.184,31.545,3.217,42,12c4.499,3.779,7.37,14.342,13,14c10.773-0.655,5.936-28.89,3-38
	C1210.558,372.244,1140.081,368.012,1079,374z M1586,374c-27.02,1.346-57.969,0.544-83-1c-6.645-0.41-12.564-4.394-18,2
	c3.676,10.991,25.828,3.505,34,10c-2.552,25.592-1.491,56.183-2,81c-9.424,3.576-27.46-1.46-31,8c8.292,7.348,21.555,0.67,35,0
	c24.941-1.243,53.986,0.372,76,2c8.702,0.644,21.188,5.169,23-6c-7.098-6.902-28.001,0.001-33-9c1.334-19.33,1.457-50.955,2-77
	c7.274-6.393,28.48,1.147,30-11C1610.73,367.282,1599.056,373.35,1586,374z M1412,413c-4.63-7.09-27.146-46.33-40-42
	c-34.954,11.774-57.916,65.471-83,91c-5.973-1.761-11.676-8.429-18-4c3.145,15.044,23.706,17.369,37,19
	c0.321-6.345-0.847-14.18,1-19c12.354-5.481,47.708-8.788,51,7c-2.03,8.303-18.302,2.365-21,10c7.307,5.387,18.479,3,29,3
	c21.46,0,43.626,0,64,0c10.525,0,22.287,2.456,29-4c-1.732-7.935-14.829-4.504-23-6C1432.916,446.555,1423.617,430.789,1412,413z
	 M443,533c-35.563-7.529-69.153-15.724-113-13c-58.591,3.64-102.442,33.888-121,78c-20.51,48.752-14.376,121.656,15,161
	c29.641,39.698,86.898,59.102,145,48c51.77-9.893,100.338-35.548,99-101c-4.393-3.94-8.665-8.002-17-8
	c-15.995,19.892-16.584,47.396-37,64c-5.686,4.625-16.665,11.952-28,9c-12.979-3.38-17.79-32.385-20-48
	c-6.329-44.715-5.635-85.742,1-128c2.902-18.485,7.416-45.794,22-47c9.696-0.802,20.449,9.436,25,16
	c13.042,18.812,17.293,50.819,26,73c9.755,1.755,13.011-2.989,18-6c0.019-41.526,17.812-77.105,8-119
	C450.572,501.822,447.476,523.025,443,533z M735,524c-33.944,29.255-60.671,73.734-86,115c-26.2,42.684-47.848,88.795-73,128
	c-13.105-2.905-21.977-21.469-37-13c-4.056,3.663-1.086,12.397-1,18c8.916,9.4,22.204,16.682,35,23
	c12.458,6.151,26.614,15.704,42,12c3.188-35.434-7.016-59.419,25-63c29.233-3.27,84.062-3.574,88,23
	c2.666,17.993-8.336,20.099-20,23c-11.126,2.768-32.437,3.161-22,19c83.794,2.046,175.98,4.153,258-1c1.383-6.645,2.89-11.898,0-18
	c-11.517-5.483-29.58-4.42-45-6c-12.042-26.162-12.748-54.83-23-80c-9.94-24.403-21.299-47.613-33-70
	c-23.631-45.213-43.307-93.591-82-125c-0.667,0-1.333,0-2,0C750.867,513.519,741.925,518.031,735,524z M1517,516
	c-27.94-1.117-68.777-6.113-90-5c-5.801,33.876,60.791,12.487,72,36c-8.98,70.715,3.716,156.77-1,229
	c-19.453,11.432-86.142-2.628-68,33c108.898-5.531,230.729-18.916,346-8c10.142-4.515,10.77-16.479,14-30
	c6.065-25.386,14.08-57.5,11-84c-19.604-3.117-16.43,13.438-22,24c-9.349,17.727-33.312,30.063-52,39
	c-20.876,9.984-43.47,20.251-70,21c-8.765-14.747-4.836-42.515-3-66c1.281-16.39,2.222-54.292,15-58c14.96-4.34,29.243,10.477,35,18
	c10.644,13.909,13.779,34.038,23,47c9.729-6.471,12.375-18.208,14-35c1.227-12.673,4.806-34.671-2-43
	c-13.132-16.07-66.633,3.72-79-11c-3.435-4.088-2.441-12.335-3-21c-1.324-20.548-8.107-49.337,3-63
	c52.756,1.124,99.939,15.904,106,67c19.621,3.955,20.358-17.832,22-35c1.759-18.394,1.371-41.001-2-55
	C1705.31,513.167,1605.622,519.542,1517,516z M1007,525c14.425,15.575,56.835,3.165,73,17c0.499,78.501-1.102,159.102,1,236
	c-8.709,9.291-24.774,11.226-43,11c4.211,3.433,12.18,13.092,21,15c16.978,3.671,42.029,0,63,0c44.125,0,80.617,2,126,2
	c15.621,0,55.6,3.572,60-2c10.034-12.706-19.607-18.814-31-20c-19.577-2.037-38.214,0.877-46-10c-1.698-10.097,2.389-20.719,3-33
	c1.468-29.456-3.24-63.995,3-89c29.372-6.88,44.434,14.883,51,37c2.252,7.585,3.56,31.583,9,34c6.523,2.898,9.906-5.516,13-13
	c7.757-18.768,10.503-56.674,3-75c-21.636-5.031-51.938-1.396-76-4c-7.643-21.826-8.41-63.796-3-89
	c43.995-4.31,88.662,16.448,102,48c3.889,9.2,2.547,20.032,15,19c19.869-8.199,5.826-46.008,12-67c1.242-4.225,5.516-8.071,6-12
	c2.826-22.942-17.885-19-41-19c-104.624,0-218.43,0-316,0C1008.788,514.091,1004.372,519.145,1007,525z"/>
<path fill-rule="evenodd" clip-rule="evenodd" fill="#FFFFFF" d="M815,927c-4.78,4.017-10.262,12.229-18,10
	C801.093,931.76,807.087,928.421,815,927z"/>
<path fill-rule="evenodd" clip-rule="evenodd" fill="#FFFFFF" d="M1024,920c7.879,14.799,27.16,35.408,46,22
	c9.519-6.774,6.729-23.313,11-37c19.516,1.182,33.903,8.965,43,25c3.697,6.518,4.92,14.396,10,21c5.196,6.754,13.764,12.578,24,18
	c8.529,4.518,20.166,14.526,30,12c12.02-3.088,5.311-25.608,16-32c11.146,0.259,17.641,13.64,31,15c4.688-7.646,6.473-18.194,9-28
	c10.49,1.51,18.982,5.018,27,9c4.256,2.299-6.962,5.43-9,8c12.91-0.487,16.778-2.459,24,3c6.512,4.922,5.581,13.711,11,17
	c8.343,5.064,19.885-1.229,30-4c8.04,2.293,14.098,6.569,25,6c5.116-0.116,1.387,8.613,7,8c12.258,2.452,24.427-2.564,33-7
	c6.518,6.482,12.642,13.358,16,23c40.869,3.797,73.972,15.361,70,64c50.076-4.354,127.232-18.921,134,32
	c3.006,22.618-8.851,50.316-20,68c-11.82,18.747-25.706,32.942-41,46c-32.879,28.071-73.393,52.68-119,56
	c-21.901,1.594-35.591-2.361-52-7c-18.262,17.072-34.187,36.48-53,53c42.016,6.014,102.802,11.505,148,24
	c11.623,3.213,36.273,9.317,37,21c0.782,12.573-23.018,18.855-34,22c-16.57,4.744-30.285,7.263-46,10
	c36.878,19.905,69.617-15.529,108-7c16.077,3.572,24.859,14.868,40,14c14.768-0.847,26.055-13.164,43-13
	c19.234,0.186,29.953,18.815,50,15c10.344-1.969,13.056-13.321,21-17c17.337-8.028,46.837-8.48,65-4
	c16.266,4.012,22.919,12.521,48,11c19.574-1.187,41.512-7.626,63-3c16.699,3.595,37.189,13.026,41,28c2.826,11.107,0,28.045,0,42
	c-0.002,41.19,0.001,81.606,0,124c-591.67,0-1183.317,0-1775,0c1.826-43.676,1-88.428,1-135c0-13.856-3.29-33.688,0-45
	c4.243-14.592,42.113-22.704,63-21c20.294,1.655,32.243,12.572,50,12c10.697-0.345,20.043-5.93,35-6
	c25.846-0.121,51.501,12.747,77,10c19.994-2.154,38.236-15.539,59-16c19.303-0.429,40.021,3.997,60,5c20.611,1.035,41.533,0,62,0
	c41.867,0,82.494,12.897,122,5c-11.495-4.161-25.259-6.509-39-11c-10.352-3.383-30.493-8.241-31-19
	c-0.532-11.297,23.317-18.792,34-22c42.401-12.732,98.581-17.479,144-22c-6.373-10.064-15.874-18.873-25-28
	c-43.89-43.89-87.406-96.196-120-155c-16.156-29.147-44.662-88.854-14-117c8.721-8.006,20.076-10.834,32-13
	c11.606-2.108,25.654,0.076,40-4c14.545-4.133,30.111-29.967,47-35c12.185-3.632,28.426-0.479,30,6c2.914,11.991-9.438,8.583-11,18
	c29.412,19.783,54.291-11.367,75-19c4.607,1.393,3.417,8.584,6,12c11.643-3.471,14.396-17.608,25-19c7.51-0.985,11.854,8.158,21,7
	c2.525,8.809,3.81,18.856,7,27c79.962,1.638,157.965,4.977,237,5c-7.652-5.816-16.283-3.297-28-8c-12.019-4.824-24.617-21.227-36-13
	c-6.939,5.016-35.209-3.11-46-8c-7.137-3.233-13.19-12.337-20-13c-9.752-0.95-13.983,8.697-23,10c-15.641,2.261-31.278-11.03-43-15
	c-9.159-3.102-22.188-2.087-24-9c-2.416-9.218,12.263-13.558,10-22c-14.848-3.99-23.677,9.807-37,9
	c-12.392-0.751-14.594-10.988-27-14c15.026-6.604,22.979,3.756,36,3c15.478-0.898,27.915-18.404,43-11
	c6.522,3.202,8.165,15.353,14,16c7.396,0.821,9.429-10.966,15-11c4.507-0.027,16.082,18.275,25,21
	C1001.436,938.938,1009.232,926.087,1024,920z M681,1029c0.679-12.465-31.027-17.613-38-5c-0.435,7.102,0.21,13.123,3,17
	C659.717,1040.503,680.411,1039.806,681,1029z M868,1050c5.381,3.412,21.909,4.028,33,4c43.998-0.111,136.063-13.478,145,21
	c3.613,13.939-4.14,27.489-13,37c-12.56,13.482-30.02,22.818-45,32c-13.783,8.448-42.053,24.47-39,39
	c2.532,12.052,42.989,17.41,52,20c17.59,5.056,40.738,11.312,38,35c-1.875,16.217-25.114,26.471-39,34
	c-11.279,6.116-41.11,15.89-41,33c0.118,18.339,34.73,22.791,55,26c82.812,13.112,163.368,5.437,232-21
	c19.464-7.497,39.148-21.263,57-36c15.896-13.123,40.594-29.109,41-52c0.244-13.764-11.023-21.95-10-33
	c1.099-11.864,18.666-21.146,29-27c12.878-7.295,26.419-12.398,30-27c5.802-23.654-10.982-28.443-26-37
	c-6.984-3.979-23.138-13.735-19-29c3.494-12.893,28.588-10.359,46-8c15.068,2.041,39.792,7.439,43-9
	c4.095-20.983-29.304-26.738-54-29c-29.607-2.712-60.998-1-84-1c-61.08,0-108.269-4.522-163-3c-55.745,1.551-112.219,7.362-163,5
	c-54.76-2.548-107.456-6.001-162-6c-14.931,0-34.428,3.476-37,16c25.692,6.782,60.861-1.708,88,4
	C863.76,1042.636,862.722,1046.652,868,1050z M1564,1079c-23.231-14.96-62.416-1.064-89,1c-3.214,7.453-5,16.333-8,24
	c38.461-5.043,94.293-11.533,97,30C1601.554,1133.702,1580.262,1089.472,1564,1079z M1480,1166c-1.949-12.484-15.661-17.62-31-19
	c-7.252,13.415-14.563,26.77-21,41C1447.101,1201.684,1483.711,1189.773,1480,1166z M1413,1211c-1.78,4.553-5.564,7.103-7,12
	c14.027,5.198,39.393,9.306,50-3C1441.462,1217.204,1428.109,1213.224,1413,1211z M1376,1345c-12.38-6.566-57.354-13.819-71-13
	c-0.219,1.257-1.558,2.044,1,2c19.881,3.385,75.105,20.571,40,37C1362.758,1369.836,1399.21,1357.312,1376,1345z M723,1353
	c-0.611,7.784,14.99,12.46,24,15c30.875,8.704,75.344,12.425,102,14c-15.687-3.255-34.986-4.501-57-10
	c-10.849-2.71-43.659-12.262-43-24c0.306-5.448,10.605-7.728,8-11C749.07,1342.812,723.917,1341.314,723,1353z M1672,1441
	c-5.549-41.748-56.438-38.752-98-37c-11.316,0.477-30.852-3.989-29,13c5.158,5.06,15.727-1.369,22,2c4.496,39.923,0.23,88.161-1,129
	c-10.681,2.319-25.416,0.584-26,13c17.598,4.644,60.124-0.765,86,1c7.312,0.499,20.022,5.499,22-2c3.193-12.108-19.894-5.584-23-14
	c3.326-16.34-2.057-41.39,3-56c24.612,8.721,21.432,45.235,28,72c16.438,1.842,40.366,3.624,54,2c2.166-3.587,6.587-7.682,4-13
	c-21.008-4.306-23.017-25.619-33-42c-7.279-11.943-17.564-18.102-22-29C1668.049,1470.346,1674.459,1459.499,1672,1441z M250,1415
	c-17.333-24.707-49.476-3.922-46,25c0.762,6.341,4.506,9.748,6,17c-35.929,18.772-31.279,76.63,0,97
	c48.871,31.826,122.987-5.638,102-78c8.737-3.032,20.466-6.082,25-17c5.526-13.306,5.103-41.884-13-41
	c2.067,7.308,5.839,19.191-2,23c-18.231,1.231-28.688-5.312-47-4c-5.588,4.32-14.613,7.655-18,18c-5.646,17.244,1.314,49.536,19,39
	c1.647-11.199-8.098-7.062-7-16c0.582-4.732,8.809-9.351,15-9c5.786,0.327,9.976,4.606,12,8c13.671,22.916-1.097,55.066-15,60
	c-32.889,11.67-53.041-32.949-42-62c3.544-9.325,10.758-9.547,11-22c-12.167-0.342-22.95-1.661-25-12
	c-1.937-9.77,3.818-20.377,12-19c6.963,1.172,4.769,8.458,9,14C251.806,1433.473,249.647,1422.98,250,1415z M567,1460
	c16.76-63.86-77.949-63.113-124-49c0.204,3.129-0.674,7.341,1,9c7.109,1.182,21.546-5.593,26,3c-5.521,37.223,0.992,86.441-3,126
	c-7.226,0.555-19.381-4.238-23,2c-2.388,9.379,8.466,10.838,16,12c25.233,3.894,60.237,3.627,81,1c41.885-5.299,45.575-64.936,17-87
	C560.829,1469.878,565.325,1466.383,567,1460z M611,1428c-13.94,19.006-20.981,71.633-8,102c19.582,45.807,99.889,45.203,125,4
	c15.894-26.079,15.754-73.572,4-98c-11.695-24.305-41.463-35.391-78-31C632.706,1407.559,619.252,1416.749,611,1428z M779,1430
	c-20.456,31.411-18.672,103.723,14,125c25.062,16.321,62.264,12.408,82,1c29.193-16.875,47.169-77.956,26-120
	c-11.069-21.984-38.198-36.052-78-31C801.998,1407.666,788.024,1416.143,779,1430z M918,1404c-1.182,0.484-2.267,1.066-3,2
	c-0.906,3.92-1.219,6.237,1,9c7.247,3.754,18.237,3.764,23,10c-2.991,38.009-1.792,80.207-2,121c-4.99,5.677-14.691,6.642-24,8
	c0.57,3.92-3.469,6.237-1,9c22.133,2.485,65.881,1.237,93-2c4.866-11.997-12.54-10.029-17-16c-0.402-11.402,0.599-21.4,4-29
	c15.19,10.287,10.075,36.02,25,46c15.79,10.56,53.75,0.676,71,1c6.774-13.262-3.825-11.094-11-17c-8.845-7.281-15.146-26.629-21-41
	c-6.631-16.279-13.465-30.975-19-43c10.622-14.256,17.51-32.313,33-41c6.343-3.557,19.506-3.574,16-16
	c-8.115-2.256-20.103-0.755-30,0c-6.82,0.521-25.428-1.046-27,5c-1.648,6.336,10.842,8.01,12,13c1.225,5.273-5.858,15.612-9,21
	c-11.796,20.231-22.563,37.431-40,51c-1.922-22.744-0.695-48.638-3-71c4.934-7.579,24.883-2.578,21-16
	C981.009,1406.527,944.731,1410.244,918,1404z M1187,1414c-12.067,1.101-18.163-4.667-29-5c-23.3-0.715-43.311,17.396-46,41
	c-2.245,19.704,1.745,45.933,16,59c14.486,13.279,38.766,9.188,47,28c-14.657,16.816-46.246,0.642-54-16
	c-3.169-6.802-1.544-15.599-9-19c-2.789,19.302,2.966,46.901,10,63c6.468-0.865,1.568-13.099,6-16c15.024,0.458,16.642,7.468,27,9
	c36.453,5.394,47.14-35.494,43-69c-1.194-9.668-9.141-18.191-10-27c-1.85-18.961,13.081-37.235,11-56
	C1191.272,1399.139,1190.017,1410.169,1187,1414z M1224,1408c-3.368,8.458-1.502,23.089-1,35c0.263,6.241-2.77,19.578,5,20
	c7.207,0.391,6.968-16.515,9-21c5.709-12.6,20.037-23.489,36-21c1.177,40.187,3.071,89.73-2,127c-9.965,2.77-30.328,0.246-25,15
	c31.549-5.481,80.91-0.622,111-2c3.928-15.994-23.445-9.172-30-18c-2.509-29.996,0-65.592,0-97c0-9.423-2.484-20.572,4-27
	c15.091,4.326,27.621,14.941,33,29c1.771,4.628,0.41,10.426,5,14c11.418-9.13,5.558-43.852,3-58
	C1321.749,1404.415,1268.983,1402.317,1224,1408z M1415,1422c-21.314,22.365-27.238,80.7-11,112c14.88,28.682,64.77,40.083,97,24
	c36.073-18.001,52.634-89.004,26-129c-12.233-18.371-39.166-27.799-73-24C1434.35,1407.206,1423.066,1413.536,1415,1422z M1733,1405
	c-0.438,3.438,0.395,5.604,1,8c5.899,6.912,21.805,0.434,25,12c1.702,6.162-1,19.587-1,30c0,32.584,1.789,66.311,0,92
	c-10.286,2.89-30.43,0.663-24,17c39.393-3.609,83.978-9.28,125-5c4.625-16.069,10.604-41.358,6-60c-7.91,2.257-5.338,10.585-8,16
	c-7.194,14.638-24.074,23.943-42,28c0.038-13.447-4.655-62.18,6-65c14.479-3.833,11.779,28.901,21,34c3.288-11.689,6.059-30.05,2-43
	c-5.636-4.031-19.056-0.277-26-3c-4.297-9.455-4.429-33.093-1-46c24.697,0.303,33.719,16.282,39,36c10.185-7.188,5.389-34.559,5-49
	C1821.533,1407.222,1769.396,1409.418,1733,1405z"/>
</svg>
